<svg width="158" height="27" viewBox="0 0 158 27" fill="none" xmlns="http://www.w3.org/2000/svg">
<path d="M21 9.5V17.5C21 18.8261 20.4732 20.0979 19.5355 21.0355C18.5979 21.9732 17.3261 22.5 16 22.5H8C6.67392 22.5 5.40215 21.9732 4.46447 21.0355C3.52678 20.0979 3 18.8261 3 17.5V9.5C3 8.17392 3.52678 6.90215 4.46447 5.96447C5.40215 5.02678 6.67392 4.5 8 4.5H16C17.3261 4.5 18.5979 5.02678 19.5355 5.96447C20.4732 6.90215 21 8.17392 21 9.5Z" stroke="white" stroke-linecap="round" stroke-linejoin="round"/>
<path d="M9.099 13.326C11.634 13.326 11.634 17.5 9.099 17.5H6V13.326M9.099 13.326H6M9.099 13.326C11.634 13.326 11.634 9.5 9.099 9.5H6V13.326M13 15C13 14.337 13.2634 13.7011 13.7322 13.2322C14.2011 12.7634 14.837 12.5 15.5 12.5C16.163 12.5 16.7989 12.7634 17.2678 13.2322C17.7366 13.7011 18 14.337 18 15H13ZM13 15C13 15.663 13.2634 16.2989 13.7322 16.7678C14.2011 17.2366 14.837 17.5 15.5 17.5C16.428 17.5 16.99 17.178 17.313 16.88M17 10H14" stroke="white" stroke-width="0.8" stroke-linecap="round" stroke-linejoin="round"/>
<path d="M41.7266 13.3359V17.5C41.5859 17.7083 41.362 17.9427 41.0547 18.2031C40.7474 18.4583 40.3229 18.6823 39.7812 18.875C39.2448 19.0625 38.5521 19.1562 37.7031 19.1562C37.0104 19.1562 36.3724 19.0365 35.7891 18.7969C35.2109 18.5521 34.7083 18.1979 34.2812 17.7344C33.8594 17.2656 33.5312 16.6979 33.2969 16.0312C33.0677 15.3594 32.9531 14.599 32.9531 13.75V12.8672C32.9531 12.0182 33.0521 11.2604 33.25 10.5938C33.4531 9.92708 33.75 9.36198 34.1406 8.89844C34.5312 8.42969 35.0104 8.07552 35.5781 7.83594C36.1458 7.59115 36.7969 7.46875 37.5312 7.46875C38.401 7.46875 39.1276 7.61979 39.7109 7.92188C40.2995 8.21875 40.7578 8.63021 41.0859 9.15625C41.4193 9.68229 41.6328 10.2812 41.7266 10.9531H40.2188C40.151 10.5417 40.0156 10.1667 39.8125 9.82812C39.6146 9.48958 39.3307 9.21875 38.9609 9.01562C38.5911 8.80729 38.1146 8.70312 37.5312 8.70312C37.0052 8.70312 36.5495 8.79948 36.1641 8.99219C35.7786 9.1849 35.4609 9.46094 35.2109 9.82031C34.9609 10.1797 34.7734 10.6146 34.6484 11.125C34.5286 11.6354 34.4688 12.2109 34.4688 12.8516V13.75C34.4688 14.4062 34.5443 14.9922 34.6953 15.5078C34.8516 16.0234 35.0729 16.4635 35.3594 16.8281C35.6458 17.1875 35.987 17.4609 36.3828 17.6484C36.7839 17.8359 37.2266 17.9297 37.7109 17.9297C38.2474 17.9297 38.6823 17.8854 39.0156 17.7969C39.349 17.7031 39.6094 17.5938 39.7969 17.4688C39.9844 17.3385 40.1276 17.2161 40.2266 17.1016V14.5547H37.5938V13.3359H41.7266ZM45.5781 10.5469V19H44.125V10.5469H45.5781ZM44.0156 8.30469C44.0156 8.07031 44.0859 7.8724 44.2266 7.71094C44.3724 7.54948 44.5859 7.46875 44.8672 7.46875C45.1432 7.46875 45.3542 7.54948 45.5 7.71094C45.651 7.8724 45.7266 8.07031 45.7266 8.30469C45.7266 8.52865 45.651 8.72135 45.5 8.88281C45.3542 9.03906 45.1432 9.11719 44.8672 9.11719C44.5859 9.11719 44.3724 9.03906 44.2266 8.88281C44.0859 8.72135 44.0156 8.52865 44.0156 8.30469ZM49.4688 7V19H48.0156V7H49.4688ZM56.7734 17.5547V13.2031C56.7734 12.8698 56.7057 12.5807 56.5703 12.3359C56.4401 12.0859 56.2422 11.8932 55.9766 11.7578C55.7109 11.6224 55.3828 11.5547 54.9922 11.5547C54.6276 11.5547 54.3073 11.6172 54.0312 11.7422C53.7604 11.8672 53.5469 12.0312 53.3906 12.2344C53.2396 12.4375 53.1641 12.6562 53.1641 12.8906H51.7188C51.7188 12.5885 51.7969 12.2891 51.9531 11.9922C52.1094 11.6953 52.3333 11.4271 52.625 11.1875C52.9219 10.9427 53.276 10.75 53.6875 10.6094C54.1042 10.4635 54.5677 10.3906 55.0781 10.3906C55.6927 10.3906 56.2344 10.4948 56.7031 10.7031C57.1771 10.9115 57.5469 11.2266 57.8125 11.6484C58.0833 12.0651 58.2188 12.5885 58.2188 13.2188V17.1562C58.2188 17.4375 58.2422 17.737 58.2891 18.0547C58.3411 18.3724 58.4167 18.6458 58.5156 18.875V19H57.0078C56.9349 18.8333 56.8776 18.612 56.8359 18.3359C56.7943 18.0547 56.7734 17.7943 56.7734 17.5547ZM57.0234 13.875L57.0391 14.8906H55.5781C55.1667 14.8906 54.7995 14.9245 54.4766 14.9922C54.1536 15.0547 53.8828 15.151 53.6641 15.2812C53.4453 15.4115 53.2786 15.5755 53.1641 15.7734C53.0495 15.9661 52.9922 16.1927 52.9922 16.4531C52.9922 16.7188 53.0521 16.9609 53.1719 17.1797C53.2917 17.3984 53.4714 17.5729 53.7109 17.7031C53.9557 17.8281 54.2552 17.8906 54.6094 17.8906C55.0521 17.8906 55.4427 17.7969 55.7812 17.6094C56.1198 17.4219 56.388 17.1927 56.5859 16.9219C56.7891 16.651 56.8984 16.388 56.9141 16.1328L57.5312 16.8281C57.4948 17.0469 57.3958 17.2891 57.2344 17.5547C57.0729 17.8203 56.8568 18.0755 56.5859 18.3203C56.3203 18.5599 56.0026 18.7604 55.6328 18.9219C55.2682 19.0781 54.8568 19.1562 54.3984 19.1562C53.8255 19.1562 53.3229 19.0443 52.8906 18.8203C52.4635 18.5964 52.1302 18.2969 51.8906 17.9219C51.6562 17.5417 51.5391 17.1172 51.5391 16.6484C51.5391 16.1953 51.6276 15.7969 51.8047 15.4531C51.9818 15.1042 52.237 14.8151 52.5703 14.5859C52.9036 14.3516 53.3047 14.1745 53.7734 14.0547C54.2422 13.9349 54.7656 13.875 55.3438 13.875H57.0234ZM61.9375 12.3516V19H60.4922V10.5469H61.8594L61.9375 12.3516ZM61.5938 14.4531L60.9922 14.4297C60.9974 13.8516 61.0833 13.3177 61.25 12.8281C61.4167 12.3333 61.651 11.9036 61.9531 11.5391C62.2552 11.1745 62.6146 10.8932 63.0312 10.6953C63.4531 10.4922 63.9193 10.3906 64.4297 10.3906C64.8464 10.3906 65.2214 10.4479 65.5547 10.5625C65.888 10.6719 66.1719 10.849 66.4062 11.0938C66.6458 11.3385 66.8281 11.6562 66.9531 12.0469C67.0781 12.4323 67.1406 12.9036 67.1406 13.4609V19H65.6875V13.4453C65.6875 13.0026 65.6224 12.6484 65.4922 12.3828C65.362 12.112 65.1719 11.9167 64.9219 11.7969C64.6719 11.6719 64.3646 11.6094 64 11.6094C63.6406 11.6094 63.3125 11.6849 63.0156 11.8359C62.724 11.987 62.4714 12.1953 62.2578 12.4609C62.0495 12.7266 61.8854 13.0312 61.7656 13.375C61.651 13.7135 61.5938 14.0729 61.5938 14.4531ZM74.8125 10.5469H76.125V18.8203C76.125 19.5651 75.974 20.2005 75.6719 20.7266C75.3698 21.2526 74.9479 21.651 74.4062 21.9219C73.8698 22.1979 73.25 22.3359 72.5469 22.3359C72.2552 22.3359 71.9115 22.2891 71.5156 22.1953C71.125 22.1068 70.7396 21.9531 70.3594 21.7344C69.9844 21.5208 69.6693 21.2318 69.4141 20.8672L70.1719 20.0078C70.526 20.4349 70.8958 20.7318 71.2812 20.8984C71.6719 21.0651 72.0573 21.1484 72.4375 21.1484C72.8958 21.1484 73.2917 21.0625 73.625 20.8906C73.9583 20.7188 74.2161 20.4635 74.3984 20.125C74.5859 19.7917 74.6797 19.3802 74.6797 18.8906V12.4062L74.8125 10.5469ZM68.9922 14.8672V14.7031C68.9922 14.0573 69.0677 13.4714 69.2188 12.9453C69.375 12.4141 69.5964 11.9583 69.8828 11.5781C70.1745 11.1979 70.526 10.9062 70.9375 10.7031C71.349 10.4948 71.8125 10.3906 72.3281 10.3906C72.8594 10.3906 73.3229 10.4844 73.7188 10.6719C74.1198 10.8542 74.4583 11.1224 74.7344 11.4766C75.0156 11.8255 75.237 12.2474 75.3984 12.7422C75.5599 13.237 75.6719 13.7969 75.7344 14.4219V15.1406C75.6771 15.7604 75.5651 16.3177 75.3984 16.8125C75.237 17.3073 75.0156 17.7292 74.7344 18.0781C74.4583 18.4271 74.1198 18.6953 73.7188 18.8828C73.3177 19.0651 72.849 19.1562 72.3125 19.1562C71.8073 19.1562 71.349 19.0495 70.9375 18.8359C70.5312 18.6224 70.1823 18.3229 69.8906 17.9375C69.599 17.5521 69.375 17.099 69.2188 16.5781C69.0677 16.0521 68.9922 15.4818 68.9922 14.8672ZM70.4375 14.7031V14.8672C70.4375 15.2891 70.4792 15.6849 70.5625 16.0547C70.651 16.4245 70.7839 16.75 70.9609 17.0312C71.1432 17.3125 71.375 17.5339 71.6562 17.6953C71.9375 17.8516 72.2734 17.9297 72.6641 17.9297C73.1432 17.9297 73.5391 17.8281 73.8516 17.625C74.1641 17.4219 74.4115 17.1536 74.5938 16.8203C74.7812 16.487 74.9271 16.125 75.0312 15.7344V13.8516C74.974 13.5651 74.8854 13.2891 74.7656 13.0234C74.651 12.7526 74.5 12.513 74.3125 12.3047C74.1302 12.0911 73.9036 11.9219 73.6328 11.7969C73.362 11.6719 73.0443 11.6094 72.6797 11.6094C72.2839 11.6094 71.9427 11.6927 71.6562 11.8594C71.375 12.0208 71.1432 12.2448 70.9609 12.5312C70.7839 12.8125 70.651 13.1406 70.5625 13.5156C70.4792 13.8854 70.4375 14.2812 70.4375 14.7031ZM82.5078 7.625H86.2734C87.1276 7.625 87.849 7.75521 88.4375 8.01562C89.0312 8.27604 89.4818 8.66146 89.7891 9.17188C90.1016 9.67708 90.2578 10.2995 90.2578 11.0391C90.2578 11.5599 90.151 12.0365 89.9375 12.4688C89.7292 12.8958 89.4271 13.2604 89.0312 13.5625C88.6406 13.8594 88.1719 14.0807 87.625 14.2266L87.2031 14.3906H83.6641L83.6484 13.1641H86.3203C86.862 13.1641 87.3125 13.0703 87.6719 12.8828C88.0312 12.6901 88.3021 12.4323 88.4844 12.1094C88.6667 11.7865 88.7578 11.4297 88.7578 11.0391C88.7578 10.6016 88.6719 10.2188 88.5 9.89062C88.3281 9.5625 88.0573 9.3099 87.6875 9.13281C87.3229 8.95052 86.8516 8.85938 86.2734 8.85938H84.0156V19H82.5078V7.625ZM89.1562 19L86.3906 13.8438L87.9609 13.8359L90.7656 18.9062V19H89.1562ZM97.1328 17.5547V13.2031C97.1328 12.8698 97.0651 12.5807 96.9297 12.3359C96.7995 12.0859 96.6016 11.8932 96.3359 11.7578C96.0703 11.6224 95.7422 11.5547 95.3516 11.5547C94.987 11.5547 94.6667 11.6172 94.3906 11.7422C94.1198 11.8672 93.9062 12.0312 93.75 12.2344C93.599 12.4375 93.5234 12.6562 93.5234 12.8906H92.0781C92.0781 12.5885 92.1562 12.2891 92.3125 11.9922C92.4688 11.6953 92.6927 11.4271 92.9844 11.1875C93.2812 10.9427 93.6354 10.75 94.0469 10.6094C94.4635 10.4635 94.9271 10.3906 95.4375 10.3906C96.0521 10.3906 96.5938 10.4948 97.0625 10.7031C97.5365 10.9115 97.9062 11.2266 98.1719 11.6484C98.4427 12.0651 98.5781 12.5885 98.5781 13.2188V17.1562C98.5781 17.4375 98.6016 17.737 98.6484 18.0547C98.7005 18.3724 98.776 18.6458 98.875 18.875V19H97.3672C97.2943 18.8333 97.237 18.612 97.1953 18.3359C97.1536 18.0547 97.1328 17.7943 97.1328 17.5547ZM97.3828 13.875L97.3984 14.8906H95.9375C95.526 14.8906 95.1589 14.9245 94.8359 14.9922C94.513 15.0547 94.2422 15.151 94.0234 15.2812C93.8047 15.4115 93.638 15.5755 93.5234 15.7734C93.4089 15.9661 93.3516 16.1927 93.3516 16.4531C93.3516 16.7188 93.4115 16.9609 93.5312 17.1797C93.651 17.3984 93.8307 17.5729 94.0703 17.7031C94.3151 17.8281 94.6146 17.8906 94.9688 17.8906C95.4115 17.8906 95.8021 17.7969 96.1406 17.6094C96.4792 17.4219 96.7474 17.1927 96.9453 16.9219C97.1484 16.651 97.2578 16.388 97.2734 16.1328L97.8906 16.8281C97.8542 17.0469 97.7552 17.2891 97.5938 17.5547C97.4323 17.8203 97.2161 18.0755 96.9453 18.3203C96.6797 18.5599 96.362 18.7604 95.9922 18.9219C95.6276 19.0781 95.2161 19.1562 94.7578 19.1562C94.1849 19.1562 93.6823 19.0443 93.25 18.8203C92.8229 18.5964 92.4896 18.2969 92.25 17.9219C92.0156 17.5417 91.8984 17.1172 91.8984 16.6484C91.8984 16.1953 91.987 15.7969 92.1641 15.4531C92.3411 15.1042 92.5964 14.8151 92.9297 14.5859C93.263 14.3516 93.6641 14.1745 94.1328 14.0547C94.6016 13.9349 95.125 13.875 95.7031 13.875H97.3828ZM102.289 12.2266V19H100.836V10.5469H102.211L102.289 12.2266ZM101.992 14.4531L101.32 14.4297C101.326 13.8516 101.401 13.3177 101.547 12.8281C101.693 12.3333 101.909 11.9036 102.195 11.5391C102.482 11.1745 102.839 10.8932 103.266 10.6953C103.693 10.4922 104.188 10.3906 104.75 10.3906C105.146 10.3906 105.51 10.4479 105.844 10.5625C106.177 10.6719 106.466 10.8464 106.711 11.0859C106.956 11.3255 107.146 11.6328 107.281 12.0078C107.417 12.3828 107.484 12.8359 107.484 13.3672V19H106.039V13.4375C106.039 12.9948 105.964 12.6406 105.812 12.375C105.667 12.1094 105.458 11.9167 105.188 11.7969C104.917 11.6719 104.599 11.6094 104.234 11.6094C103.807 11.6094 103.451 11.6849 103.164 11.8359C102.878 11.987 102.648 12.1953 102.477 12.4609C102.305 12.7266 102.18 13.0312 102.102 13.375C102.029 13.7135 101.992 14.0729 101.992 14.4531ZM107.469 13.6562L106.5 13.9531C106.505 13.4896 106.581 13.0443 106.727 12.6172C106.878 12.1901 107.094 11.8099 107.375 11.4766C107.661 11.1432 108.013 10.8802 108.43 10.6875C108.846 10.4896 109.323 10.3906 109.859 10.3906C110.312 10.3906 110.714 10.4505 111.062 10.5703C111.417 10.6901 111.714 10.875 111.953 11.125C112.198 11.3698 112.383 11.6849 112.508 12.0703C112.633 12.4557 112.695 12.9141 112.695 13.4453V19H111.242V13.4297C111.242 12.9557 111.167 12.5885 111.016 12.3281C110.87 12.0625 110.661 11.8776 110.391 11.7734C110.125 11.6641 109.807 11.6094 109.438 11.6094C109.12 11.6094 108.839 11.6641 108.594 11.7734C108.349 11.8828 108.143 12.0339 107.977 12.2266C107.81 12.4141 107.682 12.6302 107.594 12.875C107.51 13.1198 107.469 13.3802 107.469 13.6562ZM119.867 17.5547V13.2031C119.867 12.8698 119.799 12.5807 119.664 12.3359C119.534 12.0859 119.336 11.8932 119.07 11.7578C118.805 11.6224 118.477 11.5547 118.086 11.5547C117.721 11.5547 117.401 11.6172 117.125 11.7422C116.854 11.8672 116.641 12.0312 116.484 12.2344C116.333 12.4375 116.258 12.6562 116.258 12.8906H114.812C114.812 12.5885 114.891 12.2891 115.047 11.9922C115.203 11.6953 115.427 11.4271 115.719 11.1875C116.016 10.9427 116.37 10.75 116.781 10.6094C117.198 10.4635 117.661 10.3906 118.172 10.3906C118.786 10.3906 119.328 10.4948 119.797 10.7031C120.271 10.9115 120.641 11.2266 120.906 11.6484C121.177 12.0651 121.312 12.5885 121.312 13.2188V17.1562C121.312 17.4375 121.336 17.737 121.383 18.0547C121.435 18.3724 121.51 18.6458 121.609 18.875V19H120.102C120.029 18.8333 119.971 18.612 119.93 18.3359C119.888 18.0547 119.867 17.7943 119.867 17.5547ZM120.117 13.875L120.133 14.8906H118.672C118.26 14.8906 117.893 14.9245 117.57 14.9922C117.247 15.0547 116.977 15.151 116.758 15.2812C116.539 15.4115 116.372 15.5755 116.258 15.7734C116.143 15.9661 116.086 16.1927 116.086 16.4531C116.086 16.7188 116.146 16.9609 116.266 17.1797C116.385 17.3984 116.565 17.5729 116.805 17.7031C117.049 17.8281 117.349 17.8906 117.703 17.8906C118.146 17.8906 118.536 17.7969 118.875 17.6094C119.214 17.4219 119.482 17.1927 119.68 16.9219C119.883 16.651 119.992 16.388 120.008 16.1328L120.625 16.8281C120.589 17.0469 120.49 17.2891 120.328 17.5547C120.167 17.8203 119.951 18.0755 119.68 18.3203C119.414 18.5599 119.096 18.7604 118.727 18.9219C118.362 19.0781 117.951 19.1562 117.492 19.1562C116.919 19.1562 116.417 19.0443 115.984 18.8203C115.557 18.5964 115.224 18.2969 114.984 17.9219C114.75 17.5417 114.633 17.1172 114.633 16.6484C114.633 16.1953 114.721 15.7969 114.898 15.4531C115.076 15.1042 115.331 14.8151 115.664 14.5859C115.997 14.3516 116.398 14.1745 116.867 14.0547C117.336 13.9349 117.859 13.875 118.438 13.875H120.117ZM128.914 17.3594V7H130.367V19H129.039L128.914 17.3594ZM123.227 14.8672V14.7031C123.227 14.0573 123.305 13.4714 123.461 12.9453C123.622 12.4141 123.849 11.9583 124.141 11.5781C124.438 11.1979 124.789 10.9062 125.195 10.7031C125.607 10.4948 126.065 10.3906 126.57 10.3906C127.102 10.3906 127.565 10.4844 127.961 10.6719C128.362 10.8542 128.701 11.1224 128.977 11.4766C129.258 11.8255 129.479 12.2474 129.641 12.7422C129.802 13.237 129.914 13.7969 129.977 14.4219V15.1406C129.919 15.7604 129.807 16.3177 129.641 16.8125C129.479 17.3073 129.258 17.7292 128.977 18.0781C128.701 18.4271 128.362 18.6953 127.961 18.8828C127.56 19.0651 127.091 19.1562 126.555 19.1562C126.06 19.1562 125.607 19.0495 125.195 18.8359C124.789 18.6224 124.438 18.3229 124.141 17.9375C123.849 17.5521 123.622 17.099 123.461 16.5781C123.305 16.0521 123.227 15.4818 123.227 14.8672ZM124.68 14.7031V14.8672C124.68 15.2891 124.721 15.6849 124.805 16.0547C124.893 16.4245 125.029 16.75 125.211 17.0312C125.393 17.3125 125.625 17.5339 125.906 17.6953C126.188 17.8516 126.523 17.9297 126.914 17.9297C127.393 17.9297 127.786 17.8281 128.094 17.625C128.406 17.4219 128.656 17.1536 128.844 16.8203C129.031 16.487 129.177 16.125 129.281 15.7344V13.8516C129.219 13.5651 129.128 13.2891 129.008 13.0234C128.893 12.7526 128.742 12.513 128.555 12.3047C128.372 12.0911 128.146 11.9219 127.875 11.7969C127.609 11.6719 127.294 11.6094 126.93 11.6094C126.534 11.6094 126.193 11.6927 125.906 11.8594C125.625 12.0208 125.393 12.2448 125.211 12.5312C125.029 12.8125 124.893 13.1406 124.805 13.5156C124.721 13.8854 124.68 14.2812 124.68 14.7031ZM134.062 7V19H132.617V7H134.062ZM133.719 14.4531L133.117 14.4297C133.122 13.8516 133.208 13.3177 133.375 12.8281C133.542 12.3333 133.776 11.9036 134.078 11.5391C134.38 11.1745 134.74 10.8932 135.156 10.6953C135.578 10.4922 136.044 10.3906 136.555 10.3906C136.971 10.3906 137.346 10.4479 137.68 10.5625C138.013 10.6719 138.297 10.849 138.531 11.0938C138.771 11.3385 138.953 11.6562 139.078 12.0469C139.203 12.4323 139.266 12.9036 139.266 13.4609V19H137.812V13.4453C137.812 13.0026 137.747 12.6484 137.617 12.3828C137.487 12.112 137.297 11.9167 137.047 11.7969C136.797 11.6719 136.49 11.6094 136.125 11.6094C135.766 11.6094 135.438 11.6849 135.141 11.8359C134.849 11.987 134.596 12.1953 134.383 12.4609C134.174 12.7266 134.01 13.0312 133.891 13.375C133.776 13.7135 133.719 14.0729 133.719 14.4531ZM146.414 17.5547V13.2031C146.414 12.8698 146.346 12.5807 146.211 12.3359C146.081 12.0859 145.883 11.8932 145.617 11.7578C145.352 11.6224 145.023 11.5547 144.633 11.5547C144.268 11.5547 143.948 11.6172 143.672 11.7422C143.401 11.8672 143.188 12.0312 143.031 12.2344C142.88 12.4375 142.805 12.6562 142.805 12.8906H141.359C141.359 12.5885 141.438 12.2891 141.594 11.9922C141.75 11.6953 141.974 11.4271 142.266 11.1875C142.562 10.9427 142.917 10.75 143.328 10.6094C143.745 10.4635 144.208 10.3906 144.719 10.3906C145.333 10.3906 145.875 10.4948 146.344 10.7031C146.818 10.9115 147.188 11.2266 147.453 11.6484C147.724 12.0651 147.859 12.5885 147.859 13.2188V17.1562C147.859 17.4375 147.883 17.737 147.93 18.0547C147.982 18.3724 148.057 18.6458 148.156 18.875V19H146.648C146.576 18.8333 146.518 18.612 146.477 18.3359C146.435 18.0547 146.414 17.7943 146.414 17.5547ZM146.664 13.875L146.68 14.8906H145.219C144.807 14.8906 144.44 14.9245 144.117 14.9922C143.794 15.0547 143.523 15.151 143.305 15.2812C143.086 15.4115 142.919 15.5755 142.805 15.7734C142.69 15.9661 142.633 16.1927 142.633 16.4531C142.633 16.7188 142.693 16.9609 142.812 17.1797C142.932 17.3984 143.112 17.5729 143.352 17.7031C143.596 17.8281 143.896 17.8906 144.25 17.8906C144.693 17.8906 145.083 17.7969 145.422 17.6094C145.76 17.4219 146.029 17.1927 146.227 16.9219C146.43 16.651 146.539 16.388 146.555 16.1328L147.172 16.8281C147.135 17.0469 147.036 17.2891 146.875 17.5547C146.714 17.8203 146.497 18.0755 146.227 18.3203C145.961 18.5599 145.643 18.7604 145.273 18.9219C144.909 19.0781 144.497 19.1562 144.039 19.1562C143.466 19.1562 142.964 19.0443 142.531 18.8203C142.104 18.5964 141.771 18.2969 141.531 17.9219C141.297 17.5417 141.18 17.1172 141.18 16.6484C141.18 16.1953 141.268 15.7969 141.445 15.4531C141.622 15.1042 141.878 14.8151 142.211 14.5859C142.544 14.3516 142.945 14.1745 143.414 14.0547C143.883 13.9349 144.406 13.875 144.984 13.875H146.664ZM151.578 12.3516V19H150.133V10.5469H151.5L151.578 12.3516ZM151.234 14.4531L150.633 14.4297C150.638 13.8516 150.724 13.3177 150.891 12.8281C151.057 12.3333 151.292 11.9036 151.594 11.5391C151.896 11.1745 152.255 10.8932 152.672 10.6953C153.094 10.4922 153.56 10.3906 154.07 10.3906C154.487 10.3906 154.862 10.4479 155.195 10.5625C155.529 10.6719 155.812 10.849 156.047 11.0938C156.286 11.3385 156.469 11.6562 156.594 12.0469C156.719 12.4323 156.781 12.9036 156.781 13.4609V19H155.328V13.4453C155.328 13.0026 155.263 12.6484 155.133 12.3828C155.003 12.112 154.812 11.9167 154.562 11.7969C154.312 11.6719 154.005 11.6094 153.641 11.6094C153.281 11.6094 152.953 11.6849 152.656 11.8359C152.365 11.987 152.112 12.1953 151.898 12.4609C151.69 12.7266 151.526 13.0312 151.406 13.375C151.292 13.7135 151.234 14.0729 151.234 14.4531Z" fill="white"/>
</svg>
