<svg width="193" height="27" viewBox="0 0 193 27" fill="none" xmlns="http://www.w3.org/2000/svg">
<path d="M17.7143 7.07153H2.28571C1.57563 7.07153 1 7.64717 1 8.35725V18.643C1 19.353 1.57563 19.9287 2.28571 19.9287H17.7143C18.4244 19.9287 19 19.353 19 18.643V8.35725C19 7.64717 18.4244 7.07153 17.7143 7.07153Z" stroke="white" stroke-width="1.02667" stroke-linecap="round" stroke-linejoin="round"/>
<path d="M18.7094 8.11963L11.7288 13.4888C11.2331 13.8701 10.6253 14.0768 9.99996 14.0768C9.37459 14.0768 8.76677 13.8701 8.2711 13.4888L1.29053 8.11963" stroke="white" stroke-width="1.02667" stroke-linecap="round" stroke-linejoin="round"/>
<path d="M33.5781 10.5469H34.8906V18.8203C34.8906 19.5651 34.7396 20.2005 34.4375 20.7266C34.1354 21.2526 33.7135 21.651 33.1719 21.9219C32.6354 22.1979 32.0156 22.3359 31.3125 22.3359C31.0208 22.3359 30.6771 22.2891 30.2812 22.1953C29.8906 22.1068 29.5052 21.9531 29.125 21.7344C28.75 21.5208 28.4349 21.2318 28.1797 20.8672L28.9375 20.0078C29.2917 20.4349 29.6615 20.7318 30.0469 20.8984C30.4375 21.0651 30.8229 21.1484 31.2031 21.1484C31.6615 21.1484 32.0573 21.0625 32.3906 20.8906C32.724 20.7188 32.9818 20.4635 33.1641 20.125C33.3516 19.7917 33.4453 19.3802 33.4453 18.8906V12.4062L33.5781 10.5469ZM27.7578 14.8672V14.7031C27.7578 14.0573 27.8333 13.4714 27.9844 12.9453C28.1406 12.4141 28.362 11.9583 28.6484 11.5781C28.9401 11.1979 29.2917 10.9062 29.7031 10.7031C30.1146 10.4948 30.5781 10.3906 31.0938 10.3906C31.625 10.3906 32.0885 10.4844 32.4844 10.6719C32.8854 10.8542 33.224 11.1224 33.5 11.4766C33.7812 11.8255 34.0026 12.2474 34.1641 12.7422C34.3255 13.237 34.4375 13.7969 34.5 14.4219V15.1406C34.4427 15.7604 34.3307 16.3177 34.1641 16.8125C34.0026 17.3073 33.7812 17.7292 33.5 18.0781C33.224 18.4271 32.8854 18.6953 32.4844 18.8828C32.0833 19.0651 31.6146 19.1562 31.0781 19.1562C30.5729 19.1562 30.1146 19.0495 29.7031 18.8359C29.2969 18.6224 28.9479 18.3229 28.6562 17.9375C28.3646 17.5521 28.1406 17.099 27.9844 16.5781C27.8333 16.0521 27.7578 15.4818 27.7578 14.8672ZM29.2031 14.7031V14.8672C29.2031 15.2891 29.2448 15.6849 29.3281 16.0547C29.4167 16.4245 29.5495 16.75 29.7266 17.0312C29.9089 17.3125 30.1406 17.5339 30.4219 17.6953C30.7031 17.8516 31.0391 17.9297 31.4297 17.9297C31.9089 17.9297 32.3047 17.8281 32.6172 17.625C32.9297 17.4219 33.1771 17.1536 33.3594 16.8203C33.5469 16.487 33.6927 16.125 33.7969 15.7344V13.8516C33.7396 13.5651 33.651 13.2891 33.5312 13.0234C33.4167 12.7526 33.2656 12.513 33.0781 12.3047C32.8958 12.0911 32.6693 11.9219 32.3984 11.7969C32.1276 11.6719 31.8099 11.6094 31.4453 11.6094C31.0495 11.6094 30.7083 11.6927 30.4219 11.8594C30.1406 12.0208 29.9089 12.2448 29.7266 12.5312C29.5495 12.8125 29.4167 13.1406 29.3281 13.5156C29.2448 13.8854 29.2031 14.2812 29.2031 14.7031ZM38.6562 10.5469V19H37.2031V10.5469H38.6562ZM37.0938 8.30469C37.0938 8.07031 37.1641 7.8724 37.3047 7.71094C37.4505 7.54948 37.6641 7.46875 37.9453 7.46875C38.2214 7.46875 38.4323 7.54948 38.5781 7.71094C38.7292 7.8724 38.8047 8.07031 38.8047 8.30469C38.8047 8.52865 38.7292 8.72135 38.5781 8.88281C38.4323 9.03906 38.2214 9.11719 37.9453 9.11719C37.6641 9.11719 37.4505 9.03906 37.3047 8.88281C37.1641 8.72135 37.0938 8.52865 37.0938 8.30469ZM42.5469 7V19H41.0938V7H42.5469ZM47.0234 19H45.5781V9.65625C45.5781 9.04688 45.6875 8.53385 45.9062 8.11719C46.1302 7.69531 46.4505 7.3776 46.8672 7.16406C47.2839 6.94531 47.7786 6.83594 48.3516 6.83594C48.5182 6.83594 48.6849 6.84635 48.8516 6.86719C49.0234 6.88802 49.1901 6.91927 49.3516 6.96094L49.2734 8.14062C49.1641 8.11458 49.0391 8.09635 48.8984 8.08594C48.763 8.07552 48.6276 8.07031 48.4922 8.07031C48.1849 8.07031 47.9193 8.13281 47.6953 8.25781C47.4766 8.3776 47.3099 8.55469 47.1953 8.78906C47.0807 9.02344 47.0234 9.3125 47.0234 9.65625V19ZM48.8203 10.5469V11.6562H44.2422V10.5469H48.8203ZM55.4141 17.5547V13.2031C55.4141 12.8698 55.3464 12.5807 55.2109 12.3359C55.0807 12.0859 54.8828 11.8932 54.6172 11.7578C54.3516 11.6224 54.0234 11.5547 53.6328 11.5547C53.2682 11.5547 52.9479 11.6172 52.6719 11.7422C52.401 11.8672 52.1875 12.0312 52.0312 12.2344C51.8802 12.4375 51.8047 12.6562 51.8047 12.8906H50.3594C50.3594 12.5885 50.4375 12.2891 50.5938 11.9922C50.75 11.6953 50.974 11.4271 51.2656 11.1875C51.5625 10.9427 51.9167 10.75 52.3281 10.6094C52.7448 10.4635 53.2083 10.3906 53.7188 10.3906C54.3333 10.3906 54.875 10.4948 55.3438 10.7031C55.8177 10.9115 56.1875 11.2266 56.4531 11.6484C56.724 12.0651 56.8594 12.5885 56.8594 13.2188V17.1562C56.8594 17.4375 56.8828 17.737 56.9297 18.0547C56.9818 18.3724 57.0573 18.6458 57.1562 18.875V19H55.6484C55.5755 18.8333 55.5182 18.612 55.4766 18.3359C55.4349 18.0547 55.4141 17.7943 55.4141 17.5547ZM55.6641 13.875L55.6797 14.8906H54.2188C53.8073 14.8906 53.4401 14.9245 53.1172 14.9922C52.7943 15.0547 52.5234 15.151 52.3047 15.2812C52.0859 15.4115 51.9193 15.5755 51.8047 15.7734C51.6901 15.9661 51.6328 16.1927 51.6328 16.4531C51.6328 16.7188 51.6927 16.9609 51.8125 17.1797C51.9323 17.3984 52.112 17.5729 52.3516 17.7031C52.5964 17.8281 52.8958 17.8906 53.25 17.8906C53.6927 17.8906 54.0833 17.7969 54.4219 17.6094C54.7604 17.4219 55.0286 17.1927 55.2266 16.9219C55.4297 16.651 55.5391 16.388 55.5547 16.1328L56.1719 16.8281C56.1354 17.0469 56.0365 17.2891 55.875 17.5547C55.7135 17.8203 55.4974 18.0755 55.2266 18.3203C54.9609 18.5599 54.6432 18.7604 54.2734 18.9219C53.9089 19.0781 53.4974 19.1562 53.0391 19.1562C52.4661 19.1562 51.9635 19.0443 51.5312 18.8203C51.1042 18.5964 50.7708 18.2969 50.5312 17.9219C50.2969 17.5417 50.1797 17.1172 50.1797 16.6484C50.1797 16.1953 50.2682 15.7969 50.4453 15.4531C50.6224 15.1042 50.8776 14.8151 51.2109 14.5859C51.5443 14.3516 51.9453 14.1745 52.4141 14.0547C52.8828 13.9349 53.4062 13.875 53.9844 13.875H55.6641ZM60.5781 12.3516V19H59.1328V10.5469H60.5L60.5781 12.3516ZM60.2344 14.4531L59.6328 14.4297C59.638 13.8516 59.724 13.3177 59.8906 12.8281C60.0573 12.3333 60.2917 11.9036 60.5938 11.5391C60.8958 11.1745 61.2552 10.8932 61.6719 10.6953C62.0938 10.4922 62.5599 10.3906 63.0703 10.3906C63.487 10.3906 63.862 10.4479 64.1953 10.5625C64.5286 10.6719 64.8125 10.849 65.0469 11.0938C65.2865 11.3385 65.4688 11.6562 65.5938 12.0469C65.7188 12.4323 65.7812 12.9036 65.7812 13.4609V19H64.3281V13.4453C64.3281 13.0026 64.263 12.6484 64.1328 12.3828C64.0026 12.112 63.8125 11.9167 63.5625 11.7969C63.3125 11.6719 63.0052 11.6094 62.6406 11.6094C62.2812 11.6094 61.9531 11.6849 61.6562 11.8359C61.3646 11.987 61.112 12.1953 60.8984 12.4609C60.6901 12.7266 60.526 13.0312 60.4062 13.375C60.2917 13.7135 60.2344 14.0729 60.2344 14.4531ZM74.9609 12.4062V14.1406C74.9609 15.0729 74.8776 15.8594 74.7109 16.5C74.5443 17.1406 74.3047 17.6562 73.9922 18.0469C73.6797 18.4375 73.3021 18.7214 72.8594 18.8984C72.4219 19.0703 71.9271 19.1562 71.375 19.1562C70.9375 19.1562 70.5339 19.1016 70.1641 18.9922C69.7943 18.8828 69.4609 18.7083 69.1641 18.4688C68.8724 18.224 68.6224 17.9062 68.4141 17.5156C68.2057 17.125 68.0469 16.651 67.9375 16.0938C67.8281 15.5365 67.7734 14.8854 67.7734 14.1406V12.4062C67.7734 11.474 67.8568 10.6927 68.0234 10.0625C68.1953 9.43229 68.4375 8.92708 68.75 8.54688C69.0625 8.16146 69.4375 7.88542 69.875 7.71875C70.3177 7.55208 70.8125 7.46875 71.3594 7.46875C71.8021 7.46875 72.2083 7.52344 72.5781 7.63281C72.9531 7.73698 73.2865 7.90625 73.5781 8.14062C73.8698 8.36979 74.1172 8.67708 74.3203 9.0625C74.5286 9.44271 74.6875 9.90885 74.7969 10.4609C74.9062 11.013 74.9609 11.6615 74.9609 12.4062ZM73.5078 14.375V12.1641C73.5078 11.6536 73.4766 11.2057 73.4141 10.8203C73.3568 10.4297 73.2708 10.0964 73.1562 9.82031C73.0417 9.54427 72.8958 9.32031 72.7188 9.14844C72.5469 8.97656 72.3464 8.85156 72.1172 8.77344C71.8932 8.6901 71.6406 8.64844 71.3594 8.64844C71.0156 8.64844 70.7109 8.71354 70.4453 8.84375C70.1797 8.96875 69.9557 9.16927 69.7734 9.44531C69.5964 9.72135 69.4609 10.0833 69.3672 10.5312C69.2734 10.9792 69.2266 11.5234 69.2266 12.1641V14.375C69.2266 14.8854 69.2552 15.3359 69.3125 15.7266C69.375 16.1172 69.4661 16.4557 69.5859 16.7422C69.7057 17.0234 69.8516 17.2552 70.0234 17.4375C70.1953 17.6198 70.3932 17.7552 70.6172 17.8438C70.8464 17.9271 71.099 17.9688 71.375 17.9688C71.7292 17.9688 72.0391 17.901 72.3047 17.7656C72.5703 17.6302 72.7917 17.4193 72.9688 17.1328C73.151 16.8411 73.2865 16.4688 73.375 16.0156C73.4635 15.5573 73.5078 15.0104 73.5078 14.375ZM83.9922 15.9219C83.9922 16.6146 83.8307 17.2031 83.5078 17.6875C83.1901 18.1667 82.7578 18.5312 82.2109 18.7812C81.6693 19.0312 81.0573 19.1562 80.375 19.1562C79.6927 19.1562 79.0781 19.0312 78.5312 18.7812C77.9844 18.5312 77.5521 18.1667 77.2344 17.6875C76.9167 17.2031 76.7578 16.6146 76.7578 15.9219C76.7578 15.4688 76.8438 15.0547 77.0156 14.6797C77.1927 14.2995 77.4401 13.9688 77.7578 13.6875C78.0807 13.4062 78.4609 13.1901 78.8984 13.0391C79.3411 12.8828 79.8281 12.8047 80.3594 12.8047C81.0573 12.8047 81.6797 12.9401 82.2266 13.2109C82.7734 13.4766 83.2031 13.8438 83.5156 14.3125C83.8333 14.7812 83.9922 15.3177 83.9922 15.9219ZM82.5391 15.8906C82.5391 15.4688 82.4479 15.0964 82.2656 14.7734C82.0833 14.4453 81.8281 14.1901 81.5 14.0078C81.1719 13.8255 80.7917 13.7344 80.3594 13.7344C79.9167 13.7344 79.5339 13.8255 79.2109 14.0078C78.8932 14.1901 78.6458 14.4453 78.4688 14.7734C78.2917 15.0964 78.2031 15.4688 78.2031 15.8906C78.2031 16.3281 78.2891 16.7031 78.4609 17.0156C78.638 17.3229 78.888 17.5599 79.2109 17.7266C79.5391 17.888 79.9271 17.9688 80.375 17.9688C80.8229 17.9688 81.2083 17.888 81.5312 17.7266C81.8542 17.5599 82.1016 17.3229 82.2734 17.0156C82.4505 16.7031 82.5391 16.3281 82.5391 15.8906ZM83.7266 10.5859C83.7266 11.138 83.5807 11.6354 83.2891 12.0781C82.9974 12.5208 82.599 12.8698 82.0938 13.125C81.5885 13.3802 81.0156 13.5078 80.375 13.5078C79.724 13.5078 79.1432 13.3802 78.6328 13.125C78.1276 12.8698 77.7318 12.5208 77.4453 12.0781C77.1589 11.6354 77.0156 11.138 77.0156 10.5859C77.0156 9.92448 77.1589 9.36198 77.4453 8.89844C77.737 8.4349 78.1354 8.08073 78.6406 7.83594C79.1458 7.59115 79.7214 7.46875 80.3672 7.46875C81.0182 7.46875 81.5964 7.59115 82.1016 7.83594C82.6068 8.08073 83.0026 8.4349 83.2891 8.89844C83.5807 9.36198 83.7266 9.92448 83.7266 10.5859ZM82.2812 10.6094C82.2812 10.2292 82.2005 9.89323 82.0391 9.60156C81.8776 9.3099 81.6536 9.08073 81.3672 8.91406C81.0807 8.74219 80.7474 8.65625 80.3672 8.65625C79.987 8.65625 79.6536 8.73698 79.3672 8.89844C79.0859 9.05469 78.8646 9.27865 78.7031 9.57031C78.5469 9.86198 78.4688 10.2083 78.4688 10.6094C78.4688 11 78.5469 11.3411 78.7031 11.6328C78.8646 11.9245 79.0885 12.151 79.375 12.3125C79.6615 12.474 79.9948 12.5547 80.375 12.5547C80.7552 12.5547 81.0859 12.474 81.3672 12.3125C81.6536 12.151 81.8776 11.9245 82.0391 11.6328C82.2005 11.3411 82.2812 11 82.2812 10.6094ZM87.6484 13.5859L86.4922 13.2891L87.0625 7.625H92.8984V8.96094H88.2891L87.9453 12.0547C88.1536 11.9349 88.4167 11.8229 88.7344 11.7188C89.0573 11.6146 89.4271 11.5625 89.8438 11.5625C90.3698 11.5625 90.8411 11.6536 91.2578 11.8359C91.6745 12.013 92.0286 12.2682 92.3203 12.6016C92.6172 12.9349 92.8438 13.3359 93 13.8047C93.1562 14.2734 93.2344 14.7969 93.2344 15.375C93.2344 15.9219 93.1589 16.4245 93.0078 16.8828C92.862 17.3411 92.6406 17.7422 92.3438 18.0859C92.0469 18.4245 91.6719 18.6875 91.2188 18.875C90.7708 19.0625 90.2422 19.1562 89.6328 19.1562C89.1745 19.1562 88.7396 19.0938 88.3281 18.9688C87.9219 18.8385 87.5573 18.6432 87.2344 18.3828C86.9167 18.1172 86.6562 17.7891 86.4531 17.3984C86.2552 17.0026 86.1302 16.5391 86.0781 16.0078H87.4531C87.5156 16.4349 87.6406 16.7943 87.8281 17.0859C88.0156 17.3776 88.2604 17.599 88.5625 17.75C88.8698 17.8958 89.2266 17.9688 89.6328 17.9688C89.9766 17.9688 90.2812 17.9089 90.5469 17.7891C90.8125 17.6693 91.0365 17.4974 91.2188 17.2734C91.401 17.0495 91.5391 16.7786 91.6328 16.4609C91.7318 16.1432 91.7812 15.7865 91.7812 15.3906C91.7812 15.0312 91.7318 14.6979 91.6328 14.3906C91.5339 14.0833 91.3854 13.8151 91.1875 13.5859C90.9948 13.3568 90.7578 13.1797 90.4766 13.0547C90.1953 12.9245 89.8724 12.8594 89.5078 12.8594C89.0234 12.8594 88.6562 12.9245 88.4062 13.0547C88.1615 13.1849 87.9089 13.362 87.6484 13.5859ZM96.6484 13.5859L95.4922 13.2891L96.0625 7.625H101.898V8.96094H97.2891L96.9453 12.0547C97.1536 11.9349 97.4167 11.8229 97.7344 11.7188C98.0573 11.6146 98.4271 11.5625 98.8438 11.5625C99.3698 11.5625 99.8411 11.6536 100.258 11.8359C100.674 12.013 101.029 12.2682 101.32 12.6016C101.617 12.9349 101.844 13.3359 102 13.8047C102.156 14.2734 102.234 14.7969 102.234 15.375C102.234 15.9219 102.159 16.4245 102.008 16.8828C101.862 17.3411 101.641 17.7422 101.344 18.0859C101.047 18.4245 100.672 18.6875 100.219 18.875C99.7708 19.0625 99.2422 19.1562 98.6328 19.1562C98.1745 19.1562 97.7396 19.0938 97.3281 18.9688C96.9219 18.8385 96.5573 18.6432 96.2344 18.3828C95.9167 18.1172 95.6562 17.7891 95.4531 17.3984C95.2552 17.0026 95.1302 16.5391 95.0781 16.0078H96.4531C96.5156 16.4349 96.6406 16.7943 96.8281 17.0859C97.0156 17.3776 97.2604 17.599 97.5625 17.75C97.8698 17.8958 98.2266 17.9688 98.6328 17.9688C98.9766 17.9688 99.2812 17.9089 99.5469 17.7891C99.8125 17.6693 100.036 17.4974 100.219 17.2734C100.401 17.0495 100.539 16.7786 100.633 16.4609C100.732 16.1432 100.781 15.7865 100.781 15.3906C100.781 15.0312 100.732 14.6979 100.633 14.3906C100.534 14.0833 100.385 13.8151 100.188 13.5859C99.9948 13.3568 99.7578 13.1797 99.4766 13.0547C99.1953 12.9245 98.8724 12.8594 98.5078 12.8594C98.0234 12.8594 97.6562 12.9245 97.4062 13.0547C97.1615 13.1849 96.9089 13.362 96.6484 13.5859ZM116.438 15.0703C116.417 15.5495 116.344 16.0312 116.219 16.5156C116.094 16.9948 115.906 17.4349 115.656 17.8359C115.406 18.237 115.081 18.5599 114.68 18.8047C114.284 19.0443 113.805 19.1641 113.242 19.1641C112.883 19.1641 112.568 19.1016 112.297 18.9766C112.031 18.8464 111.812 18.6615 111.641 18.4219C111.474 18.1823 111.357 17.8932 111.289 17.5547C111.227 17.2161 111.216 16.8385 111.258 16.4219L111.656 12.0938H112.805L112.406 16.4219C112.375 16.8021 112.383 17.112 112.43 17.3516C112.482 17.5911 112.56 17.776 112.664 17.9062C112.768 18.0312 112.885 18.1172 113.016 18.1641C113.151 18.2109 113.281 18.2344 113.406 18.2344C113.719 18.2344 113.997 18.1536 114.242 17.9922C114.487 17.8255 114.693 17.599 114.859 17.3125C115.031 17.0208 115.164 16.6849 115.258 16.3047C115.352 15.9193 115.409 15.5078 115.43 15.0703C115.466 14.2943 115.43 13.5807 115.32 12.9297C115.216 12.2786 115.036 11.7005 114.781 11.1953C114.531 10.6901 114.203 10.263 113.797 9.91406C113.391 9.5651 112.906 9.29948 112.344 9.11719C111.781 8.9349 111.138 8.84375 110.414 8.84375C109.758 8.84375 109.151 8.94531 108.594 9.14844C108.042 9.34635 107.544 9.63281 107.102 10.0078C106.664 10.3828 106.286 10.8333 105.969 11.3594C105.656 11.8854 105.409 12.4792 105.227 13.1406C105.049 13.7969 104.945 14.5052 104.914 15.2656C104.878 16.0469 104.919 16.7656 105.039 17.4219C105.159 18.0729 105.352 18.6536 105.617 19.1641C105.888 19.6797 106.229 20.1146 106.641 20.4688C107.052 20.8281 107.529 21.099 108.07 21.2812C108.612 21.4688 109.216 21.5625 109.883 21.5625C110.341 21.5625 110.805 21.5078 111.273 21.3984C111.747 21.2891 112.143 21.1406 112.461 20.9531L112.758 21.8438C112.393 22.0781 111.938 22.2526 111.391 22.3672C110.849 22.4818 110.336 22.5391 109.852 22.5391C109.06 22.5391 108.336 22.4297 107.68 22.2109C107.029 21.9974 106.451 21.6823 105.945 21.2656C105.445 20.8542 105.029 20.3516 104.695 19.7578C104.362 19.1693 104.117 18.4974 103.961 17.7422C103.805 16.987 103.745 16.1615 103.781 15.2656C103.818 14.4115 103.945 13.6068 104.164 12.8516C104.388 12.0964 104.693 11.4115 105.078 10.7969C105.464 10.1823 105.922 9.65365 106.453 9.21094C106.99 8.76302 107.591 8.41927 108.258 8.17969C108.93 7.9401 109.659 7.82031 110.445 7.82031C111.247 7.82031 111.974 7.92969 112.625 8.14844C113.276 8.36719 113.846 8.68229 114.336 9.09375C114.831 9.50521 115.24 10.0078 115.562 10.6016C115.885 11.1953 116.12 11.8672 116.266 12.6172C116.417 13.3672 116.474 14.1849 116.438 15.0703ZM108.414 15.7344C108.378 16.099 108.378 16.4245 108.414 16.7109C108.451 16.9974 108.521 17.2396 108.625 17.4375C108.729 17.6354 108.865 17.7865 109.031 17.8906C109.203 17.9896 109.404 18.0391 109.633 18.0391C109.784 18.0391 109.943 18.0026 110.109 17.9297C110.276 17.8516 110.44 17.7318 110.602 17.5703C110.763 17.4089 110.914 17.1979 111.055 16.9375C111.195 16.6771 111.312 16.3646 111.406 16L111.922 16.5625C111.802 16.9896 111.646 17.3646 111.453 17.6875C111.266 18.0104 111.055 18.2812 110.82 18.5C110.586 18.7188 110.336 18.8854 110.07 19C109.81 19.1094 109.544 19.1641 109.273 19.1641C108.893 19.1641 108.56 19.0833 108.273 18.9219C107.987 18.7552 107.755 18.5208 107.578 18.2188C107.401 17.9167 107.276 17.5573 107.203 17.1406C107.135 16.7188 107.125 16.25 107.172 15.7344C107.219 15.1875 107.315 14.6823 107.461 14.2188C107.607 13.7552 107.786 13.3411 108 12.9766C108.219 12.612 108.464 12.3021 108.734 12.0469C109.01 11.7917 109.302 11.599 109.609 11.4688C109.917 11.3333 110.232 11.2656 110.555 11.2656C111.117 11.2656 111.56 11.349 111.883 11.5156C112.206 11.6771 112.513 11.8698 112.805 12.0938L112.141 12.8672C111.99 12.7214 111.792 12.5859 111.547 12.4609C111.302 12.3359 111.013 12.2734 110.68 12.2734C110.393 12.2734 110.125 12.3464 109.875 12.4922C109.625 12.638 109.398 12.8568 109.195 13.1484C108.997 13.4401 108.831 13.8021 108.695 14.2344C108.56 14.6615 108.466 15.1615 108.414 15.7344ZM123.828 10.5469H125.141V18.8203C125.141 19.5651 124.99 20.2005 124.688 20.7266C124.385 21.2526 123.964 21.651 123.422 21.9219C122.885 22.1979 122.266 22.3359 121.562 22.3359C121.271 22.3359 120.927 22.2891 120.531 22.1953C120.141 22.1068 119.755 21.9531 119.375 21.7344C119 21.5208 118.685 21.2318 118.43 20.8672L119.188 20.0078C119.542 20.4349 119.911 20.7318 120.297 20.8984C120.688 21.0651 121.073 21.1484 121.453 21.1484C121.911 21.1484 122.307 21.0625 122.641 20.8906C122.974 20.7188 123.232 20.4635 123.414 20.125C123.602 19.7917 123.695 19.3802 123.695 18.8906V12.4062L123.828 10.5469ZM118.008 14.8672V14.7031C118.008 14.0573 118.083 13.4714 118.234 12.9453C118.391 12.4141 118.612 11.9583 118.898 11.5781C119.19 11.1979 119.542 10.9062 119.953 10.7031C120.365 10.4948 120.828 10.3906 121.344 10.3906C121.875 10.3906 122.339 10.4844 122.734 10.6719C123.135 10.8542 123.474 11.1224 123.75 11.4766C124.031 11.8255 124.253 12.2474 124.414 12.7422C124.576 13.237 124.688 13.7969 124.75 14.4219V15.1406C124.693 15.7604 124.581 16.3177 124.414 16.8125C124.253 17.3073 124.031 17.7292 123.75 18.0781C123.474 18.4271 123.135 18.6953 122.734 18.8828C122.333 19.0651 121.865 19.1562 121.328 19.1562C120.823 19.1562 120.365 19.0495 119.953 18.8359C119.547 18.6224 119.198 18.3229 118.906 17.9375C118.615 17.5521 118.391 17.099 118.234 16.5781C118.083 16.0521 118.008 15.4818 118.008 14.8672ZM119.453 14.7031V14.8672C119.453 15.2891 119.495 15.6849 119.578 16.0547C119.667 16.4245 119.799 16.75 119.977 17.0312C120.159 17.3125 120.391 17.5339 120.672 17.6953C120.953 17.8516 121.289 17.9297 121.68 17.9297C122.159 17.9297 122.555 17.8281 122.867 17.625C123.18 17.4219 123.427 17.1536 123.609 16.8203C123.797 16.487 123.943 16.125 124.047 15.7344V13.8516C123.99 13.5651 123.901 13.2891 123.781 13.0234C123.667 12.7526 123.516 12.513 123.328 12.3047C123.146 12.0911 122.919 11.9219 122.648 11.7969C122.378 11.6719 122.06 11.6094 121.695 11.6094C121.299 11.6094 120.958 11.6927 120.672 11.8594C120.391 12.0208 120.159 12.2448 119.977 12.5312C119.799 12.8125 119.667 13.1406 119.578 13.5156C119.495 13.8854 119.453 14.2812 119.453 14.7031ZM128.773 12.2266V19H127.32V10.5469H128.695L128.773 12.2266ZM128.477 14.4531L127.805 14.4297C127.81 13.8516 127.885 13.3177 128.031 12.8281C128.177 12.3333 128.393 11.9036 128.68 11.5391C128.966 11.1745 129.323 10.8932 129.75 10.6953C130.177 10.4922 130.672 10.3906 131.234 10.3906C131.63 10.3906 131.995 10.4479 132.328 10.5625C132.661 10.6719 132.951 10.8464 133.195 11.0859C133.44 11.3255 133.63 11.6328 133.766 12.0078C133.901 12.3828 133.969 12.8359 133.969 13.3672V19H132.523V13.4375C132.523 12.9948 132.448 12.6406 132.297 12.375C132.151 12.1094 131.943 11.9167 131.672 11.7969C131.401 11.6719 131.083 11.6094 130.719 11.6094C130.292 11.6094 129.935 11.6849 129.648 11.8359C129.362 11.987 129.133 12.1953 128.961 12.4609C128.789 12.7266 128.664 13.0312 128.586 13.375C128.513 13.7135 128.477 14.0729 128.477 14.4531ZM133.953 13.6562L132.984 13.9531C132.99 13.4896 133.065 13.0443 133.211 12.6172C133.362 12.1901 133.578 11.8099 133.859 11.4766C134.146 11.1432 134.497 10.8802 134.914 10.6875C135.331 10.4896 135.807 10.3906 136.344 10.3906C136.797 10.3906 137.198 10.4505 137.547 10.5703C137.901 10.6901 138.198 10.875 138.438 11.125C138.682 11.3698 138.867 11.6849 138.992 12.0703C139.117 12.4557 139.18 12.9141 139.18 13.4453V19H137.727V13.4297C137.727 12.9557 137.651 12.5885 137.5 12.3281C137.354 12.0625 137.146 11.8776 136.875 11.7734C136.609 11.6641 136.292 11.6094 135.922 11.6094C135.604 11.6094 135.323 11.6641 135.078 11.7734C134.833 11.8828 134.628 12.0339 134.461 12.2266C134.294 12.4141 134.167 12.6302 134.078 12.875C133.995 13.1198 133.953 13.3802 133.953 13.6562ZM146.352 17.5547V13.2031C146.352 12.8698 146.284 12.5807 146.148 12.3359C146.018 12.0859 145.82 11.8932 145.555 11.7578C145.289 11.6224 144.961 11.5547 144.57 11.5547C144.206 11.5547 143.885 11.6172 143.609 11.7422C143.339 11.8672 143.125 12.0312 142.969 12.2344C142.818 12.4375 142.742 12.6562 142.742 12.8906H141.297C141.297 12.5885 141.375 12.2891 141.531 11.9922C141.688 11.6953 141.911 11.4271 142.203 11.1875C142.5 10.9427 142.854 10.75 143.266 10.6094C143.682 10.4635 144.146 10.3906 144.656 10.3906C145.271 10.3906 145.812 10.4948 146.281 10.7031C146.755 10.9115 147.125 11.2266 147.391 11.6484C147.661 12.0651 147.797 12.5885 147.797 13.2188V17.1562C147.797 17.4375 147.82 17.737 147.867 18.0547C147.919 18.3724 147.995 18.6458 148.094 18.875V19H146.586C146.513 18.8333 146.456 18.612 146.414 18.3359C146.372 18.0547 146.352 17.7943 146.352 17.5547ZM146.602 13.875L146.617 14.8906H145.156C144.745 14.8906 144.378 14.9245 144.055 14.9922C143.732 15.0547 143.461 15.151 143.242 15.2812C143.023 15.4115 142.857 15.5755 142.742 15.7734C142.628 15.9661 142.57 16.1927 142.57 16.4531C142.57 16.7188 142.63 16.9609 142.75 17.1797C142.87 17.3984 143.049 17.5729 143.289 17.7031C143.534 17.8281 143.833 17.8906 144.188 17.8906C144.63 17.8906 145.021 17.7969 145.359 17.6094C145.698 17.4219 145.966 17.1927 146.164 16.9219C146.367 16.651 146.477 16.388 146.492 16.1328L147.109 16.8281C147.073 17.0469 146.974 17.2891 146.812 17.5547C146.651 17.8203 146.435 18.0755 146.164 18.3203C145.898 18.5599 145.581 18.7604 145.211 18.9219C144.846 19.0781 144.435 19.1562 143.977 19.1562C143.404 19.1562 142.901 19.0443 142.469 18.8203C142.042 18.5964 141.708 18.2969 141.469 17.9219C141.234 17.5417 141.117 17.1172 141.117 16.6484C141.117 16.1953 141.206 15.7969 141.383 15.4531C141.56 15.1042 141.815 14.8151 142.148 14.5859C142.482 14.3516 142.883 14.1745 143.352 14.0547C143.82 13.9349 144.344 13.875 144.922 13.875H146.602ZM151.641 10.5469V19H150.188V10.5469H151.641ZM150.078 8.30469C150.078 8.07031 150.148 7.8724 150.289 7.71094C150.435 7.54948 150.648 7.46875 150.93 7.46875C151.206 7.46875 151.417 7.54948 151.562 7.71094C151.714 7.8724 151.789 8.07031 151.789 8.30469C151.789 8.52865 151.714 8.72135 151.562 8.88281C151.417 9.03906 151.206 9.11719 150.93 9.11719C150.648 9.11719 150.435 9.03906 150.289 8.88281C150.148 8.72135 150.078 8.52865 150.078 8.30469ZM155.531 7V19H154.078V7H155.531ZM157.875 18.2344C157.875 17.9896 157.951 17.7839 158.102 17.6172C158.258 17.4453 158.482 17.3594 158.773 17.3594C159.065 17.3594 159.286 17.4453 159.438 17.6172C159.594 17.7839 159.672 17.9896 159.672 18.2344C159.672 18.474 159.594 18.6771 159.438 18.8438C159.286 19.0104 159.065 19.0938 158.773 19.0938C158.482 19.0938 158.258 19.0104 158.102 18.8438C157.951 18.6771 157.875 18.474 157.875 18.2344ZM165.453 17.9688C165.797 17.9688 166.115 17.8984 166.406 17.7578C166.698 17.6172 166.938 17.4245 167.125 17.1797C167.312 16.9297 167.419 16.6458 167.445 16.3281H168.82C168.794 16.8281 168.625 17.2943 168.312 17.7266C168.005 18.1536 167.602 18.5 167.102 18.7656C166.602 19.026 166.052 19.1562 165.453 19.1562C164.818 19.1562 164.263 19.0443 163.789 18.8203C163.32 18.5964 162.93 18.2891 162.617 17.8984C162.31 17.5078 162.078 17.0599 161.922 16.5547C161.771 16.0443 161.695 15.5052 161.695 14.9375V14.6094C161.695 14.0417 161.771 13.5052 161.922 13C162.078 12.4896 162.31 12.0391 162.617 11.6484C162.93 11.2578 163.32 10.9505 163.789 10.7266C164.263 10.5026 164.818 10.3906 165.453 10.3906C166.115 10.3906 166.693 10.526 167.188 10.7969C167.682 11.0625 168.07 11.4271 168.352 11.8906C168.638 12.349 168.794 12.8698 168.82 13.4531H167.445C167.419 13.1042 167.32 12.7891 167.148 12.5078C166.982 12.2266 166.753 12.0026 166.461 11.8359C166.174 11.6641 165.839 11.5781 165.453 11.5781C165.01 11.5781 164.638 11.6667 164.336 11.8438C164.039 12.0156 163.802 12.25 163.625 12.5469C163.453 12.8385 163.328 13.1641 163.25 13.5234C163.177 13.8776 163.141 14.2396 163.141 14.6094V14.9375C163.141 15.3073 163.177 15.6719 163.25 16.0312C163.323 16.3906 163.445 16.7161 163.617 17.0078C163.794 17.2995 164.031 17.5339 164.328 17.7109C164.63 17.8828 165.005 17.9688 165.453 17.9688ZM170.062 14.8672V14.6875C170.062 14.0781 170.151 13.513 170.328 12.9922C170.505 12.4661 170.76 12.0104 171.094 11.625C171.427 11.2344 171.831 10.9323 172.305 10.7188C172.779 10.5 173.31 10.3906 173.898 10.3906C174.492 10.3906 175.026 10.5 175.5 10.7188C175.979 10.9323 176.385 11.2344 176.719 11.625C177.057 12.0104 177.315 12.4661 177.492 12.9922C177.669 13.513 177.758 14.0781 177.758 14.6875V14.8672C177.758 15.4766 177.669 16.0417 177.492 16.5625C177.315 17.0833 177.057 17.5391 176.719 17.9297C176.385 18.3151 175.982 18.6172 175.508 18.8359C175.039 19.0495 174.508 19.1562 173.914 19.1562C173.32 19.1562 172.786 19.0495 172.312 18.8359C171.839 18.6172 171.432 18.3151 171.094 17.9297C170.76 17.5391 170.505 17.0833 170.328 16.5625C170.151 16.0417 170.062 15.4766 170.062 14.8672ZM171.508 14.6875V14.8672C171.508 15.2891 171.557 15.6875 171.656 16.0625C171.755 16.4323 171.904 16.7604 172.102 17.0469C172.305 17.3333 172.557 17.5599 172.859 17.7266C173.161 17.888 173.513 17.9688 173.914 17.9688C174.31 17.9688 174.656 17.888 174.953 17.7266C175.255 17.5599 175.505 17.3333 175.703 17.0469C175.901 16.7604 176.049 16.4323 176.148 16.0625C176.253 15.6875 176.305 15.2891 176.305 14.8672V14.6875C176.305 14.2708 176.253 13.8776 176.148 13.5078C176.049 13.1328 175.898 12.8021 175.695 12.5156C175.497 12.224 175.247 11.9948 174.945 11.8281C174.648 11.6615 174.299 11.5781 173.898 11.5781C173.503 11.5781 173.154 11.6615 172.852 11.8281C172.555 11.9948 172.305 12.224 172.102 12.5156C171.904 12.8021 171.755 13.1328 171.656 13.5078C171.557 13.8776 171.508 14.2708 171.508 14.6875ZM181.008 12.2266V19H179.555V10.5469H180.93L181.008 12.2266ZM180.711 14.4531L180.039 14.4297C180.044 13.8516 180.12 13.3177 180.266 12.8281C180.411 12.3333 180.628 11.9036 180.914 11.5391C181.201 11.1745 181.557 10.8932 181.984 10.6953C182.411 10.4922 182.906 10.3906 183.469 10.3906C183.865 10.3906 184.229 10.4479 184.562 10.5625C184.896 10.6719 185.185 10.8464 185.43 11.0859C185.674 11.3255 185.865 11.6328 186 12.0078C186.135 12.3828 186.203 12.8359 186.203 13.3672V19H184.758V13.4375C184.758 12.9948 184.682 12.6406 184.531 12.375C184.385 12.1094 184.177 11.9167 183.906 11.7969C183.635 11.6719 183.318 11.6094 182.953 11.6094C182.526 11.6094 182.169 11.6849 181.883 11.8359C181.596 11.987 181.367 12.1953 181.195 12.4609C181.023 12.7266 180.898 13.0312 180.82 13.375C180.747 13.7135 180.711 14.0729 180.711 14.4531ZM186.188 13.6562L185.219 13.9531C185.224 13.4896 185.299 13.0443 185.445 12.6172C185.596 12.1901 185.812 11.8099 186.094 11.4766C186.38 11.1432 186.732 10.8802 187.148 10.6875C187.565 10.4896 188.042 10.3906 188.578 10.3906C189.031 10.3906 189.432 10.4505 189.781 10.5703C190.135 10.6901 190.432 10.875 190.672 11.125C190.917 11.3698 191.102 11.6849 191.227 12.0703C191.352 12.4557 191.414 12.9141 191.414 13.4453V19H189.961V13.4297C189.961 12.9557 189.885 12.5885 189.734 12.3281C189.589 12.0625 189.38 11.8776 189.109 11.7734C188.844 11.6641 188.526 11.6094 188.156 11.6094C187.839 11.6094 187.557 11.6641 187.312 11.7734C187.068 11.8828 186.862 12.0339 186.695 12.2266C186.529 12.4141 186.401 12.6302 186.312 12.875C186.229 13.1198 186.188 13.3802 186.188 13.6562Z" fill="white"/>
</svg>
