<svg width="114" height="27" viewBox="0 0 114 27" fill="none" xmlns="http://www.w3.org/2000/svg">
<path d="M12 17.5C13.0609 17.5 14.0783 17.0786 14.8284 16.3284C15.5786 15.5783 16 14.5609 16 13.5C16 12.4391 15.5786 11.4217 14.8284 10.6716C14.0783 9.92143 13.0609 9.5 12 9.5C10.9391 9.5 9.92172 9.92143 9.17157 10.6716C8.42143 11.4217 8 12.4391 8 13.5C8 14.5609 8.42143 15.5783 9.17157 16.3284C9.92172 17.0786 10.9391 17.5 12 17.5Z" stroke="white" stroke-linecap="round" stroke-linejoin="round"/>
<path d="M3 17.5V9.5C3 8.17392 3.52678 6.90215 4.46447 5.96447C5.40215 5.02678 6.67392 4.5 8 4.5H16C17.3261 4.5 18.5979 5.02678 19.5355 5.96447C20.4732 6.90215 21 8.17392 21 9.5V17.5C21 18.8261 20.4732 20.0979 19.5355 21.0355C18.5979 21.9732 17.3261 22.5 16 22.5H8C6.67392 22.5 5.40215 21.9732 4.46447 21.0355C3.52678 20.0979 3 18.8261 3 17.5Z" stroke="white"/>
<path d="M17.5 8.01002L17.51 7.99902" stroke="white" stroke-linecap="round" stroke-linejoin="round"/>
<path d="M45.5625 15.0703C45.5417 15.5495 45.4688 16.0312 45.3438 16.5156C45.2188 16.9948 45.0312 17.4349 44.7812 17.8359C44.5312 18.237 44.2057 18.5599 43.8047 18.8047C43.4089 19.0443 42.9297 19.1641 42.3672 19.1641C42.0078 19.1641 41.6927 19.1016 41.4219 18.9766C41.1562 18.8464 40.9375 18.6615 40.7656 18.4219C40.599 18.1823 40.4818 17.8932 40.4141 17.5547C40.3516 17.2161 40.3411 16.8385 40.3828 16.4219L40.7812 12.0938H41.9297L41.5312 16.4219C41.5 16.8021 41.5078 17.112 41.5547 17.3516C41.6068 17.5911 41.6849 17.776 41.7891 17.9062C41.8932 18.0312 42.0104 18.1172 42.1406 18.1641C42.276 18.2109 42.4062 18.2344 42.5312 18.2344C42.8438 18.2344 43.1224 18.1536 43.3672 17.9922C43.612 17.8255 43.8177 17.599 43.9844 17.3125C44.1562 17.0208 44.2891 16.6849 44.3828 16.3047C44.4766 15.9193 44.5339 15.5078 44.5547 15.0703C44.5911 14.2943 44.5547 13.5807 44.4453 12.9297C44.3411 12.2786 44.1615 11.7005 43.9062 11.1953C43.6562 10.6901 43.3281 10.263 42.9219 9.91406C42.5156 9.5651 42.0312 9.29948 41.4688 9.11719C40.9062 8.9349 40.263 8.84375 39.5391 8.84375C38.8828 8.84375 38.276 8.94531 37.7188 9.14844C37.1667 9.34635 36.6693 9.63281 36.2266 10.0078C35.7891 10.3828 35.4115 10.8333 35.0938 11.3594C34.7812 11.8854 34.5339 12.4792 34.3516 13.1406C34.1745 13.7969 34.0703 14.5052 34.0391 15.2656C34.0026 16.0469 34.0443 16.7656 34.1641 17.4219C34.2839 18.0729 34.4766 18.6536 34.7422 19.1641C35.013 19.6797 35.3542 20.1146 35.7656 20.4688C36.1771 20.8281 36.6536 21.099 37.1953 21.2812C37.737 21.4688 38.3411 21.5625 39.0078 21.5625C39.4661 21.5625 39.9297 21.5078 40.3984 21.3984C40.8724 21.2891 41.2682 21.1406 41.5859 20.9531L41.8828 21.8438C41.5182 22.0781 41.0625 22.2526 40.5156 22.3672C39.974 22.4818 39.4609 22.5391 38.9766 22.5391C38.1849 22.5391 37.4609 22.4297 36.8047 22.2109C36.1536 21.9974 35.5755 21.6823 35.0703 21.2656C34.5703 20.8542 34.1536 20.3516 33.8203 19.7578C33.487 19.1693 33.2422 18.4974 33.0859 17.7422C32.9297 16.987 32.8698 16.1615 32.9062 15.2656C32.9427 14.4115 33.0703 13.6068 33.2891 12.8516C33.513 12.0964 33.8177 11.4115 34.2031 10.7969C34.5885 10.1823 35.0469 9.65365 35.5781 9.21094C36.1146 8.76302 36.7161 8.41927 37.3828 8.17969C38.0547 7.9401 38.7839 7.82031 39.5703 7.82031C40.3724 7.82031 41.099 7.92969 41.75 8.14844C42.401 8.36719 42.9714 8.68229 43.4609 9.09375C43.9557 9.50521 44.3646 10.0078 44.6875 10.6016C45.0104 11.1953 45.2448 11.8672 45.3906 12.6172C45.5417 13.3672 45.599 14.1849 45.5625 15.0703ZM37.5391 15.7344C37.5026 16.099 37.5026 16.4245 37.5391 16.7109C37.5755 16.9974 37.6458 17.2396 37.75 17.4375C37.8542 17.6354 37.9896 17.7865 38.1562 17.8906C38.3281 17.9896 38.5286 18.0391 38.7578 18.0391C38.9089 18.0391 39.0677 18.0026 39.2344 17.9297C39.401 17.8516 39.5651 17.7318 39.7266 17.5703C39.888 17.4089 40.0391 17.1979 40.1797 16.9375C40.3203 16.6771 40.4375 16.3646 40.5312 16L41.0469 16.5625C40.9271 16.9896 40.7708 17.3646 40.5781 17.6875C40.3906 18.0104 40.1797 18.2812 39.9453 18.5C39.7109 18.7188 39.4609 18.8854 39.1953 19C38.9349 19.1094 38.6693 19.1641 38.3984 19.1641C38.0182 19.1641 37.6849 19.0833 37.3984 18.9219C37.112 18.7552 36.8802 18.5208 36.7031 18.2188C36.526 17.9167 36.401 17.5573 36.3281 17.1406C36.2604 16.7188 36.25 16.25 36.2969 15.7344C36.3438 15.1875 36.4401 14.6823 36.5859 14.2188C36.7318 13.7552 36.9115 13.3411 37.125 12.9766C37.3438 12.612 37.5885 12.3021 37.8594 12.0469C38.1354 11.7917 38.4271 11.599 38.7344 11.4688C39.0417 11.3333 39.3568 11.2656 39.6797 11.2656C40.2422 11.2656 40.6849 11.349 41.0078 11.5156C41.3307 11.6771 41.638 11.8698 41.9297 12.0938L41.2656 12.8672C41.1146 12.7214 40.9167 12.5859 40.6719 12.4609C40.4271 12.3359 40.138 12.2734 39.8047 12.2734C39.5182 12.2734 39.25 12.3464 39 12.4922C38.75 12.638 38.5234 12.8568 38.3203 13.1484C38.1224 13.4401 37.9557 13.8021 37.8203 14.2344C37.6849 14.6615 37.5911 15.1615 37.5391 15.7344ZM52.9531 10.5469H54.2656V18.8203C54.2656 19.5651 54.1146 20.2005 53.8125 20.7266C53.5104 21.2526 53.0885 21.651 52.5469 21.9219C52.0104 22.1979 51.3906 22.3359 50.6875 22.3359C50.3958 22.3359 50.0521 22.2891 49.6562 22.1953C49.2656 22.1068 48.8802 21.9531 48.5 21.7344C48.125 21.5208 47.8099 21.2318 47.5547 20.8672L48.3125 20.0078C48.6667 20.4349 49.0365 20.7318 49.4219 20.8984C49.8125 21.0651 50.1979 21.1484 50.5781 21.1484C51.0365 21.1484 51.4323 21.0625 51.7656 20.8906C52.099 20.7188 52.3568 20.4635 52.5391 20.125C52.7266 19.7917 52.8203 19.3802 52.8203 18.8906V12.4062L52.9531 10.5469ZM47.1328 14.8672V14.7031C47.1328 14.0573 47.2083 13.4714 47.3594 12.9453C47.5156 12.4141 47.737 11.9583 48.0234 11.5781C48.3151 11.1979 48.6667 10.9062 49.0781 10.7031C49.4896 10.4948 49.9531 10.3906 50.4688 10.3906C51 10.3906 51.4635 10.4844 51.8594 10.6719C52.2604 10.8542 52.599 11.1224 52.875 11.4766C53.1562 11.8255 53.3776 12.2474 53.5391 12.7422C53.7005 13.237 53.8125 13.7969 53.875 14.4219V15.1406C53.8177 15.7604 53.7057 16.3177 53.5391 16.8125C53.3776 17.3073 53.1562 17.7292 52.875 18.0781C52.599 18.4271 52.2604 18.6953 51.8594 18.8828C51.4583 19.0651 50.9896 19.1562 50.4531 19.1562C49.9479 19.1562 49.4896 19.0495 49.0781 18.8359C48.6719 18.6224 48.3229 18.3229 48.0312 17.9375C47.7396 17.5521 47.5156 17.099 47.3594 16.5781C47.2083 16.0521 47.1328 15.4818 47.1328 14.8672ZM48.5781 14.7031V14.8672C48.5781 15.2891 48.6198 15.6849 48.7031 16.0547C48.7917 16.4245 48.9245 16.75 49.1016 17.0312C49.2839 17.3125 49.5156 17.5339 49.7969 17.6953C50.0781 17.8516 50.4141 17.9297 50.8047 17.9297C51.2839 17.9297 51.6797 17.8281 51.9922 17.625C52.3047 17.4219 52.5521 17.1536 52.7344 16.8203C52.9219 16.487 53.0677 16.125 53.1719 15.7344V13.8516C53.1146 13.5651 53.026 13.2891 52.9062 13.0234C52.7917 12.7526 52.6406 12.513 52.4531 12.3047C52.2708 12.0911 52.0443 11.9219 51.7734 11.7969C51.5026 11.6719 51.1849 11.6094 50.8203 11.6094C50.4245 11.6094 50.0833 11.6927 49.7969 11.8594C49.5156 12.0208 49.2839 12.2448 49.1016 12.5312C48.9245 12.8125 48.7917 13.1406 48.7031 13.5156C48.6198 13.8854 48.5781 14.2812 48.5781 14.7031ZM61.6328 17.0469V10.5469H63.0859V19H61.7031L61.6328 17.0469ZM61.9062 15.2656L62.5078 15.25C62.5078 15.8125 62.4479 16.3333 62.3281 16.8125C62.2135 17.2865 62.026 17.6979 61.7656 18.0469C61.5052 18.3958 61.1641 18.6693 60.7422 18.8672C60.3203 19.0599 59.8073 19.1562 59.2031 19.1562C58.7917 19.1562 58.4141 19.0964 58.0703 18.9766C57.7318 18.8568 57.4401 18.6719 57.1953 18.4219C56.9505 18.1719 56.7604 17.8464 56.625 17.4453C56.4948 17.0443 56.4297 16.5625 56.4297 16V10.5469H57.875V16.0156C57.875 16.3958 57.9167 16.7109 58 16.9609C58.0885 17.2057 58.2057 17.401 58.3516 17.5469C58.5026 17.6875 58.6693 17.7865 58.8516 17.8438C59.0391 17.901 59.2318 17.9297 59.4297 17.9297C60.0443 17.9297 60.5312 17.8125 60.8906 17.5781C61.25 17.3385 61.5078 17.0182 61.6641 16.6172C61.8255 16.2109 61.9062 15.7604 61.9062 15.2656ZM66.8594 10.5469V19H65.4062V10.5469H66.8594ZM65.2969 8.30469C65.2969 8.07031 65.3672 7.8724 65.5078 7.71094C65.6536 7.54948 65.8672 7.46875 66.1484 7.46875C66.4245 7.46875 66.6354 7.54948 66.7812 7.71094C66.9323 7.8724 67.0078 8.07031 67.0078 8.30469C67.0078 8.52865 66.9323 8.72135 66.7812 8.88281C66.6354 9.03906 66.4245 9.11719 66.1484 9.11719C65.8672 9.11719 65.6536 9.03906 65.5078 8.88281C65.3672 8.72135 65.2969 8.52865 65.2969 8.30469ZM70.75 7V19H69.2969V7H70.75ZM78.0547 17.5547V13.2031C78.0547 12.8698 77.987 12.5807 77.8516 12.3359C77.7214 12.0859 77.5234 11.8932 77.2578 11.7578C76.9922 11.6224 76.6641 11.5547 76.2734 11.5547C75.9089 11.5547 75.5885 11.6172 75.3125 11.7422C75.0417 11.8672 74.8281 12.0312 74.6719 12.2344C74.5208 12.4375 74.4453 12.6562 74.4453 12.8906H73C73 12.5885 73.0781 12.2891 73.2344 11.9922C73.3906 11.6953 73.6146 11.4271 73.9062 11.1875C74.2031 10.9427 74.5573 10.75 74.9688 10.6094C75.3854 10.4635 75.849 10.3906 76.3594 10.3906C76.974 10.3906 77.5156 10.4948 77.9844 10.7031C78.4583 10.9115 78.8281 11.2266 79.0938 11.6484C79.3646 12.0651 79.5 12.5885 79.5 13.2188V17.1562C79.5 17.4375 79.5234 17.737 79.5703 18.0547C79.6224 18.3724 79.6979 18.6458 79.7969 18.875V19H78.2891C78.2161 18.8333 78.1589 18.612 78.1172 18.3359C78.0755 18.0547 78.0547 17.7943 78.0547 17.5547ZM78.3047 13.875L78.3203 14.8906H76.8594C76.4479 14.8906 76.0807 14.9245 75.7578 14.9922C75.4349 15.0547 75.1641 15.151 74.9453 15.2812C74.7266 15.4115 74.5599 15.5755 74.4453 15.7734C74.3307 15.9661 74.2734 16.1927 74.2734 16.4531C74.2734 16.7188 74.3333 16.9609 74.4531 17.1797C74.5729 17.3984 74.7526 17.5729 74.9922 17.7031C75.237 17.8281 75.5365 17.8906 75.8906 17.8906C76.3333 17.8906 76.724 17.7969 77.0625 17.6094C77.401 17.4219 77.6693 17.1927 77.8672 16.9219C78.0703 16.651 78.1797 16.388 78.1953 16.1328L78.8125 16.8281C78.776 17.0469 78.6771 17.2891 78.5156 17.5547C78.3542 17.8203 78.138 18.0755 77.8672 18.3203C77.6016 18.5599 77.2839 18.7604 76.9141 18.9219C76.5495 19.0781 76.138 19.1562 75.6797 19.1562C75.1068 19.1562 74.6042 19.0443 74.1719 18.8203C73.7448 18.5964 73.4115 18.2969 73.1719 17.9219C72.9375 17.5417 72.8203 17.1172 72.8203 16.6484C72.8203 16.1953 72.9089 15.7969 73.0859 15.4531C73.263 15.1042 73.5182 14.8151 73.8516 14.5859C74.1849 14.3516 74.5859 14.1745 75.0547 14.0547C75.5234 13.9349 76.0469 13.875 76.625 13.875H78.3047ZM83.2188 12.3516V19H81.7734V10.5469H83.1406L83.2188 12.3516ZM82.875 14.4531L82.2734 14.4297C82.2786 13.8516 82.3646 13.3177 82.5312 12.8281C82.6979 12.3333 82.9323 11.9036 83.2344 11.5391C83.5365 11.1745 83.8958 10.8932 84.3125 10.6953C84.7344 10.4922 85.2005 10.3906 85.7109 10.3906C86.1276 10.3906 86.5026 10.4479 86.8359 10.5625C87.1693 10.6719 87.4531 10.849 87.6875 11.0938C87.9271 11.3385 88.1094 11.6562 88.2344 12.0469C88.3594 12.4323 88.4219 12.9036 88.4219 13.4609V19H86.9688V13.4453C86.9688 13.0026 86.9036 12.6484 86.7734 12.3828C86.6432 12.112 86.4531 11.9167 86.2031 11.7969C85.9531 11.6719 85.6458 11.6094 85.2812 11.6094C84.9219 11.6094 84.5938 11.6849 84.2969 11.8359C84.0052 11.987 83.7526 12.1953 83.5391 12.4609C83.3307 12.7266 83.1667 13.0312 83.0469 13.375C82.9323 13.7135 82.875 14.0729 82.875 14.4531ZM96.0938 10.5469H97.4062V18.8203C97.4062 19.5651 97.2552 20.2005 96.9531 20.7266C96.651 21.2526 96.2292 21.651 95.6875 21.9219C95.151 22.1979 94.5312 22.3359 93.8281 22.3359C93.5365 22.3359 93.1927 22.2891 92.7969 22.1953C92.4062 22.1068 92.0208 21.9531 91.6406 21.7344C91.2656 21.5208 90.9505 21.2318 90.6953 20.8672L91.4531 20.0078C91.8073 20.4349 92.1771 20.7318 92.5625 20.8984C92.9531 21.0651 93.3385 21.1484 93.7188 21.1484C94.1771 21.1484 94.5729 21.0625 94.9062 20.8906C95.2396 20.7188 95.4974 20.4635 95.6797 20.125C95.8672 19.7917 95.9609 19.3802 95.9609 18.8906V12.4062L96.0938 10.5469ZM90.2734 14.8672V14.7031C90.2734 14.0573 90.349 13.4714 90.5 12.9453C90.6562 12.4141 90.8776 11.9583 91.1641 11.5781C91.4557 11.1979 91.8073 10.9062 92.2188 10.7031C92.6302 10.4948 93.0938 10.3906 93.6094 10.3906C94.1406 10.3906 94.6042 10.4844 95 10.6719C95.401 10.8542 95.7396 11.1224 96.0156 11.4766C96.2969 11.8255 96.5182 12.2474 96.6797 12.7422C96.8411 13.237 96.9531 13.7969 97.0156 14.4219V15.1406C96.9583 15.7604 96.8464 16.3177 96.6797 16.8125C96.5182 17.3073 96.2969 17.7292 96.0156 18.0781C95.7396 18.4271 95.401 18.6953 95 18.8828C94.599 19.0651 94.1302 19.1562 93.5938 19.1562C93.0885 19.1562 92.6302 19.0495 92.2188 18.8359C91.8125 18.6224 91.4635 18.3229 91.1719 17.9375C90.8802 17.5521 90.6562 17.099 90.5 16.5781C90.349 16.0521 90.2734 15.4818 90.2734 14.8672ZM91.7188 14.7031V14.8672C91.7188 15.2891 91.7604 15.6849 91.8438 16.0547C91.9323 16.4245 92.0651 16.75 92.2422 17.0312C92.4245 17.3125 92.6562 17.5339 92.9375 17.6953C93.2188 17.8516 93.5547 17.9297 93.9453 17.9297C94.4245 17.9297 94.8203 17.8281 95.1328 17.625C95.4453 17.4219 95.6927 17.1536 95.875 16.8203C96.0625 16.487 96.2083 16.125 96.3125 15.7344V13.8516C96.2552 13.5651 96.1667 13.2891 96.0469 13.0234C95.9323 12.7526 95.7812 12.513 95.5938 12.3047C95.4115 12.0911 95.1849 11.9219 94.9141 11.7969C94.6432 11.6719 94.3255 11.6094 93.9609 11.6094C93.5651 11.6094 93.224 11.6927 92.9375 11.8594C92.6562 12.0208 92.4245 12.2448 92.2422 12.5312C92.0651 12.8125 91.9323 13.1406 91.8438 13.5156C91.7604 13.8854 91.7188 14.2812 91.7188 14.7031ZM104.523 16.7578C104.523 16.5495 104.477 16.3568 104.383 16.1797C104.294 15.9974 104.109 15.8333 103.828 15.6875C103.552 15.5365 103.135 15.4062 102.578 15.2969C102.109 15.1979 101.685 15.0807 101.305 14.9453C100.93 14.8099 100.609 14.6458 100.344 14.4531C100.083 14.2604 99.8828 14.0339 99.7422 13.7734C99.6016 13.513 99.5312 13.2083 99.5312 12.8594C99.5312 12.526 99.6042 12.2109 99.75 11.9141C99.901 11.6172 100.112 11.3542 100.383 11.125C100.659 10.8958 100.99 10.7161 101.375 10.5859C101.76 10.4557 102.19 10.3906 102.664 10.3906C103.341 10.3906 103.919 10.5104 104.398 10.75C104.878 10.9896 105.245 11.3099 105.5 11.7109C105.755 12.1068 105.883 12.5469 105.883 13.0312H104.438C104.438 12.7969 104.367 12.5703 104.227 12.3516C104.091 12.1276 103.891 11.9427 103.625 11.7969C103.365 11.651 103.044 11.5781 102.664 11.5781C102.263 11.5781 101.938 11.6406 101.688 11.7656C101.443 11.8854 101.263 12.0391 101.148 12.2266C101.039 12.4141 100.984 12.612 100.984 12.8203C100.984 12.9766 101.01 13.1172 101.062 13.2422C101.12 13.362 101.219 13.474 101.359 13.5781C101.5 13.6771 101.698 13.7708 101.953 13.8594C102.208 13.9479 102.534 14.0365 102.93 14.125C103.622 14.2812 104.193 14.4688 104.641 14.6875C105.089 14.9062 105.422 15.1745 105.641 15.4922C105.859 15.8099 105.969 16.1953 105.969 16.6484C105.969 17.0182 105.891 17.3568 105.734 17.6641C105.583 17.9714 105.362 18.237 105.07 18.4609C104.784 18.6797 104.44 18.8516 104.039 18.9766C103.643 19.0964 103.198 19.1562 102.703 19.1562C101.958 19.1562 101.328 19.0234 100.812 18.7578C100.297 18.4922 99.9062 18.1484 99.6406 17.7266C99.375 17.3047 99.2422 16.8594 99.2422 16.3906H100.695C100.716 16.7865 100.831 17.1016 101.039 17.3359C101.247 17.5651 101.503 17.7292 101.805 17.8281C102.107 17.9219 102.406 17.9688 102.703 17.9688C103.099 17.9688 103.43 17.9167 103.695 17.8125C103.966 17.7083 104.172 17.5651 104.312 17.3828C104.453 17.2005 104.523 16.9922 104.523 16.7578ZM113.961 19V20.1875H106.797V19H113.961Z" fill="white"/>
</svg>
