<svg width="30" height="30" viewBox="0 0 30 30" fill="none" xmlns="http://www.w3.org/2000/svg">
<path d="M20.3548 7.70601C22.1577 7.70601 23.6193 6.24442 23.6193 4.44145C23.6193 2.63848 22.1577 1.17688 20.3548 1.17688C18.5518 1.17688 17.0902 2.63848 17.0902 4.44145C17.0902 6.24442 18.5518 7.70601 20.3548 7.70601Z" fill="#027FFF"/>
<path d="M6.22711 24.561C7.18987 26.4996 8.7676 28.0648 10.7139 29.0121C12.6601 29.9594 14.8653 30.2354 16.985 29.797C19.1047 29.3586 21.0195 28.2305 22.4303 26.589C23.8412 24.9474 24.6686 22.8848 24.7835 20.7233C24.7835 20.5596 24.7835 20.3959 24.7835 20.2296C24.7835 20.0172 24.7835 19.8049 24.7604 19.5951H21.501C21.5215 19.8023 21.5317 20.0146 21.5317 20.2296C21.5317 20.3959 21.5317 20.5622 21.5112 20.7233C21.3892 22.3668 20.6503 23.9033 19.4426 25.0247C18.235 26.146 16.648 26.7692 15 26.7692C13.352 26.7692 11.765 26.146 10.5573 25.0247C9.34969 23.9033 8.61075 22.3668 8.48877 20.7233C8.47598 20.5622 8.4683 20.3959 8.4683 20.2296C8.4677 20.0176 8.4788 19.8058 8.50156 19.5951H5.2242C5.20374 19.8023 5.20374 20.0146 5.20374 20.227C5.20374 20.3933 5.20374 20.557 5.21653 20.7208C5.28618 22.0567 5.63018 23.3639 6.22711 24.561Z" fill="#027FFF"/>
<path d="M11.5794 0.614029C9.90311 1.23865 8.42989 2.31034 7.3195 3.71284C6.2091 5.11534 5.50393 6.79511 5.28047 8.56995C5.05701 10.3448 5.3238 12.1469 6.05189 13.7809C6.77997 15.4149 7.94157 16.8183 9.41068 17.8389C10.8798 18.8596 12.6003 19.4585 14.3856 19.5706C16.171 19.6828 17.9529 19.304 19.5382 18.4753C21.1236 17.6466 22.4517 16.3996 23.3786 14.8697C24.3055 13.3397 24.7958 11.5851 24.7963 9.79626C24.7963 9.48925 24.7809 9.18479 24.7528 8.8829H21.4677C21.5089 9.18561 21.5294 9.49077 21.5291 9.79626C21.5291 11.0882 21.146 12.3512 20.4282 13.4253C19.7103 14.4995 18.6901 15.3367 17.4964 15.831C16.3028 16.3253 14.9893 16.4545 13.7222 16.2023C12.4551 15.95 11.2913 15.3277 10.3779 14.414C9.46456 13.5002 8.84268 12.3362 8.59094 11.069C8.3392 9.80177 8.46892 8.48838 8.96368 7.29492C9.45844 6.10145 10.296 5.08152 11.3705 4.36411C12.445 3.64671 13.708 3.26406 15 3.26457C15.3055 3.26514 15.6107 3.28651 15.9134 3.32853V0.0434978C15.6115 0.015355 15.307 4.35682e-06 15 4.35682e-06C13.8323 -0.00109763 12.6738 0.206858 11.5794 0.614029Z" fill="#027FFF"/>
</svg>
