<svg width="159" height="27" viewBox="0 0 159 27" fill="none" xmlns="http://www.w3.org/2000/svg">
<path d="M11.1334 15.4V20.6929C11.1334 21.3048 10.8903 21.8916 10.4576 22.3243C10.025 22.7569 9.43819 23 8.82633 23H3.30787C2.69593 23 2.10904 22.7569 1.67626 22.3243C1.24347 21.8917 1.00022 21.3049 1 20.6929V7.57447C1.00022 6.96246 1.24345 6.37557 1.67621 5.94281C2.10897 5.51005 2.69585 5.26683 3.30787 5.2666H5.43334" stroke="white" stroke-width="0.962514" stroke-linecap="round" stroke-linejoin="round"/>
<path d="M17.4665 4H10.4998C9.82789 4 9.18352 4.2669 8.70843 4.742C8.23333 5.21709 7.96643 5.86146 7.96643 6.53334V10.3333C7.96643 11.0052 8.23333 11.6496 8.70843 12.1247C9.18352 12.5998 9.82789 12.8667 10.4998 12.8667H13.6664V16.0334L16.8331 12.8667H17.4665C18.1383 12.8667 18.7827 12.5998 19.2578 12.1247C19.7329 11.6496 19.9998 11.0052 19.9998 10.3333V6.53334C19.9998 5.86146 19.7329 5.21709 19.2578 4.742C18.7827 4.2669 18.1383 4 17.4665 4V4Z" stroke="white" stroke-width="0.962514" stroke-linecap="round" stroke-linejoin="round"/>
<path d="M34.4919 7.60938H34.6169V8.83594H34.4919C33.7263 8.83594 33.0857 8.96094 32.5701 9.21094C32.0544 9.45573 31.6456 9.78646 31.3435 10.2031C31.0414 10.6146 30.8227 11.0781 30.6873 11.5938C30.557 12.1094 30.4919 12.6328 30.4919 13.1641V14.8359C30.4919 15.3411 30.5518 15.7891 30.6716 16.1797C30.7914 16.5651 30.9555 16.8906 31.1638 17.1562C31.3722 17.4219 31.6065 17.6224 31.8669 17.7578C32.1326 17.8932 32.4086 17.9609 32.6951 17.9609C33.0284 17.9609 33.3253 17.8984 33.5857 17.7734C33.8461 17.6432 34.0649 17.4635 34.2419 17.2344C34.4242 17 34.5623 16.724 34.656 16.4062C34.7498 16.0885 34.7966 15.7396 34.7966 15.3594C34.7966 15.0208 34.755 14.6953 34.6716 14.3828C34.5883 14.0651 34.4607 13.7839 34.2888 13.5391C34.1169 13.2891 33.9008 13.0938 33.6404 12.9531C33.3852 12.8073 33.0805 12.7344 32.7263 12.7344C32.3253 12.7344 31.9503 12.8333 31.6013 13.0312C31.2576 13.224 30.9737 13.4792 30.7498 13.7969C30.531 14.1094 30.406 14.4505 30.3748 14.8203L29.6091 14.8125C29.682 14.2292 29.8175 13.7318 30.0154 13.3203C30.2185 12.9036 30.4685 12.5651 30.7654 12.3047C31.0675 12.0391 31.4034 11.8464 31.7732 11.7266C32.1482 11.6016 32.544 11.5391 32.9607 11.5391C33.5284 11.5391 34.018 11.6458 34.4294 11.8594C34.8409 12.0729 35.1794 12.3594 35.4451 12.7188C35.7107 13.0729 35.906 13.474 36.031 13.9219C36.1612 14.3646 36.2263 14.8203 36.2263 15.2891C36.2263 15.8255 36.1508 16.3281 35.9998 16.7969C35.8487 17.2656 35.6222 17.6771 35.3201 18.0312C35.0232 18.3854 34.656 18.6615 34.2185 18.8594C33.781 19.0573 33.2732 19.1562 32.6951 19.1562C32.0805 19.1562 31.544 19.0312 31.0857 18.7812C30.6274 18.526 30.2472 18.1875 29.9451 17.7656C29.643 17.3438 29.4164 16.875 29.2654 16.3594C29.1143 15.8438 29.0388 15.3203 29.0388 14.7891V14.1094C29.0388 13.3073 29.1195 12.5208 29.281 11.75C29.4425 10.9792 29.7211 10.2812 30.1169 9.65625C30.518 9.03125 31.0727 8.53385 31.781 8.16406C32.4893 7.79427 33.393 7.60938 34.4919 7.60938ZM45.3982 17.8125V19H37.9529V17.9609L41.6794 13.8125C42.1378 13.3021 42.4919 12.8698 42.7419 12.5156C42.9972 12.1562 43.1742 11.8359 43.2732 11.5547C43.3774 11.2682 43.4294 10.9766 43.4294 10.6797C43.4294 10.3047 43.3513 9.96615 43.1951 9.66406C43.044 9.35677 42.8201 9.11198 42.5232 8.92969C42.2263 8.7474 41.8669 8.65625 41.4451 8.65625C40.9399 8.65625 40.518 8.75521 40.1794 8.95312C39.8461 9.14583 39.5961 9.41667 39.4294 9.76562C39.2628 10.1146 39.1794 10.5156 39.1794 10.9688H37.7341C37.7341 10.3281 37.8748 9.74219 38.156 9.21094C38.4373 8.67969 38.8539 8.25781 39.406 7.94531C39.9581 7.6276 40.6378 7.46875 41.4451 7.46875C42.1638 7.46875 42.7784 7.59635 43.2888 7.85156C43.7992 8.10156 44.1899 8.45573 44.4607 8.91406C44.7367 9.36719 44.8748 9.89844 44.8748 10.5078C44.8748 10.8411 44.8175 11.1797 44.7029 11.5234C44.5935 11.862 44.4399 12.2005 44.2419 12.5391C44.0492 12.8776 43.8227 13.2109 43.5623 13.5391C43.307 13.8672 43.0336 14.1901 42.7419 14.5078L39.6951 17.8125H45.3982ZM54.406 12.8984V14.2578H46.6091V12.8984H54.406ZM51.2341 9.57812V17.8594H49.7888V9.57812H51.2341ZM67.1638 15.9219C67.1638 16.6146 67.0024 17.2031 66.6794 17.6875C66.3617 18.1667 65.9294 18.5312 65.3826 18.7812C64.8409 19.0312 64.2289 19.1562 63.5466 19.1562C62.8643 19.1562 62.2498 19.0312 61.7029 18.7812C61.156 18.5312 60.7237 18.1667 60.406 17.6875C60.0883 17.2031 59.9294 16.6146 59.9294 15.9219C59.9294 15.4688 60.0154 15.0547 60.1873 14.6797C60.3643 14.2995 60.6117 13.9688 60.9294 13.6875C61.2524 13.4062 61.6326 13.1901 62.0701 13.0391C62.5128 12.8828 62.9998 12.8047 63.531 12.8047C64.2289 12.8047 64.8513 12.9401 65.3982 13.2109C65.9451 13.4766 66.3748 13.8438 66.6873 14.3125C67.005 14.7812 67.1638 15.3177 67.1638 15.9219ZM65.7107 15.8906C65.7107 15.4688 65.6195 15.0964 65.4373 14.7734C65.255 14.4453 64.9998 14.1901 64.6716 14.0078C64.3435 13.8255 63.9633 13.7344 63.531 13.7344C63.0883 13.7344 62.7055 13.8255 62.3826 14.0078C62.0649 14.1901 61.8175 14.4453 61.6404 14.7734C61.4633 15.0964 61.3748 15.4688 61.3748 15.8906C61.3748 16.3281 61.4607 16.7031 61.6326 17.0156C61.8097 17.3229 62.0597 17.5599 62.3826 17.7266C62.7107 17.888 63.0987 17.9688 63.5466 17.9688C63.9945 17.9688 64.38 17.888 64.7029 17.7266C65.0258 17.5599 65.2732 17.3229 65.4451 17.0156C65.6222 16.7031 65.7107 16.3281 65.7107 15.8906ZM66.8982 10.5859C66.8982 11.138 66.7524 11.6354 66.4607 12.0781C66.169 12.5208 65.7706 12.8698 65.2654 13.125C64.7602 13.3802 64.1873 13.5078 63.5466 13.5078C62.8956 13.5078 62.3149 13.3802 61.8044 13.125C61.2992 12.8698 60.9034 12.5208 60.6169 12.0781C60.3305 11.6354 60.1873 11.138 60.1873 10.5859C60.1873 9.92448 60.3305 9.36198 60.6169 8.89844C60.9086 8.4349 61.307 8.08073 61.8123 7.83594C62.3175 7.59115 62.893 7.46875 63.5388 7.46875C64.1899 7.46875 64.768 7.59115 65.2732 7.83594C65.7784 8.08073 66.1742 8.4349 66.4607 8.89844C66.7524 9.36198 66.8982 9.92448 66.8982 10.5859ZM65.4529 10.6094C65.4529 10.2292 65.3722 9.89323 65.2107 9.60156C65.0492 9.3099 64.8253 9.08073 64.5388 8.91406C64.2524 8.74219 63.919 8.65625 63.5388 8.65625C63.1586 8.65625 62.8253 8.73698 62.5388 8.89844C62.2576 9.05469 62.0362 9.27865 61.8748 9.57031C61.7185 9.86198 61.6404 10.2083 61.6404 10.6094C61.6404 11 61.7185 11.3411 61.8748 11.6328C62.0362 11.9245 62.2602 12.151 62.5466 12.3125C62.8331 12.474 63.1664 12.5547 63.5466 12.5547C63.9268 12.5547 64.2576 12.474 64.5388 12.3125C64.8253 12.151 65.0492 11.9245 65.2107 11.6328C65.3722 11.3411 65.4529 11 65.4529 10.6094ZM70.8201 13.5859L69.6638 13.2891L70.2341 7.625H76.0701V8.96094H71.4607L71.1169 12.0547C71.3253 11.9349 71.5883 11.8229 71.906 11.7188C72.2289 11.6146 72.5987 11.5625 73.0154 11.5625C73.5414 11.5625 74.0128 11.6536 74.4294 11.8359C74.8461 12.013 75.2003 12.2682 75.4919 12.6016C75.7888 12.9349 76.0154 13.3359 76.1716 13.8047C76.3279 14.2734 76.406 14.7969 76.406 15.375C76.406 15.9219 76.3305 16.4245 76.1794 16.8828C76.0336 17.3411 75.8123 17.7422 75.5154 18.0859C75.2185 18.4245 74.8435 18.6875 74.3904 18.875C73.9425 19.0625 73.4138 19.1562 72.8044 19.1562C72.3461 19.1562 71.9112 19.0938 71.4998 18.9688C71.0935 18.8385 70.7289 18.6432 70.406 18.3828C70.0883 18.1172 69.8279 17.7891 69.6248 17.3984C69.4268 17.0026 69.3018 16.5391 69.2498 16.0078H70.6248C70.6873 16.4349 70.8123 16.7943 70.9998 17.0859C71.1873 17.3776 71.432 17.599 71.7341 17.75C72.0414 17.8958 72.3982 17.9688 72.8044 17.9688C73.1482 17.9688 73.4529 17.9089 73.7185 17.7891C73.9841 17.6693 74.2081 17.4974 74.3904 17.2734C74.5727 17.0495 74.7107 16.7786 74.8044 16.4609C74.9034 16.1432 74.9529 15.7865 74.9529 15.3906C74.9529 15.0312 74.9034 14.6979 74.8044 14.3906C74.7055 14.0833 74.557 13.8151 74.3591 13.5859C74.1664 13.3568 73.9294 13.1797 73.6482 13.0547C73.3669 12.9245 73.044 12.8594 72.6794 12.8594C72.1951 12.8594 71.8279 12.9245 71.5779 13.0547C71.3331 13.1849 71.0805 13.362 70.8201 13.5859ZM85.1638 15.9219C85.1638 16.6146 85.0024 17.2031 84.6794 17.6875C84.3617 18.1667 83.9294 18.5312 83.3826 18.7812C82.8409 19.0312 82.2289 19.1562 81.5466 19.1562C80.8643 19.1562 80.2498 19.0312 79.7029 18.7812C79.156 18.5312 78.7237 18.1667 78.406 17.6875C78.0883 17.2031 77.9294 16.6146 77.9294 15.9219C77.9294 15.4688 78.0154 15.0547 78.1873 14.6797C78.3643 14.2995 78.6117 13.9688 78.9294 13.6875C79.2524 13.4062 79.6326 13.1901 80.0701 13.0391C80.5128 12.8828 80.9998 12.8047 81.531 12.8047C82.2289 12.8047 82.8513 12.9401 83.3982 13.2109C83.9451 13.4766 84.3748 13.8438 84.6873 14.3125C85.005 14.7812 85.1638 15.3177 85.1638 15.9219ZM83.7107 15.8906C83.7107 15.4688 83.6195 15.0964 83.4373 14.7734C83.255 14.4453 82.9998 14.1901 82.6716 14.0078C82.3435 13.8255 81.9633 13.7344 81.531 13.7344C81.0883 13.7344 80.7055 13.8255 80.3826 14.0078C80.0649 14.1901 79.8175 14.4453 79.6404 14.7734C79.4633 15.0964 79.3748 15.4688 79.3748 15.8906C79.3748 16.3281 79.4607 16.7031 79.6326 17.0156C79.8097 17.3229 80.0597 17.5599 80.3826 17.7266C80.7107 17.888 81.0987 17.9688 81.5466 17.9688C81.9945 17.9688 82.38 17.888 82.7029 17.7266C83.0258 17.5599 83.2732 17.3229 83.4451 17.0156C83.6222 16.7031 83.7107 16.3281 83.7107 15.8906ZM84.8982 10.5859C84.8982 11.138 84.7524 11.6354 84.4607 12.0781C84.169 12.5208 83.7706 12.8698 83.2654 13.125C82.7602 13.3802 82.1873 13.5078 81.5466 13.5078C80.8956 13.5078 80.3149 13.3802 79.8044 13.125C79.2992 12.8698 78.9034 12.5208 78.6169 12.0781C78.3305 11.6354 78.1873 11.138 78.1873 10.5859C78.1873 9.92448 78.3305 9.36198 78.6169 8.89844C78.9086 8.4349 79.307 8.08073 79.8123 7.83594C80.3175 7.59115 80.893 7.46875 81.5388 7.46875C82.1899 7.46875 82.768 7.59115 83.2732 7.83594C83.7784 8.08073 84.1742 8.4349 84.4607 8.89844C84.7524 9.36198 84.8982 9.92448 84.8982 10.5859ZM83.4529 10.6094C83.4529 10.2292 83.3722 9.89323 83.2107 9.60156C83.0492 9.3099 82.8253 9.08073 82.5388 8.91406C82.2524 8.74219 81.919 8.65625 81.5388 8.65625C81.1586 8.65625 80.8253 8.73698 80.5388 8.89844C80.2576 9.05469 80.0362 9.27865 79.8748 9.57031C79.7185 9.86198 79.6404 10.2083 79.6404 10.6094C79.6404 11 79.7185 11.3411 79.8748 11.6328C80.0362 11.9245 80.2602 12.151 80.5466 12.3125C80.8331 12.474 81.1664 12.5547 81.5466 12.5547C81.9268 12.5547 82.2576 12.474 82.5388 12.3125C82.8253 12.151 83.0492 11.9245 83.2107 11.6328C83.3722 11.3411 83.4529 11 83.4529 10.6094ZM88.8201 13.5859L87.6638 13.2891L88.2341 7.625H94.0701V8.96094H89.4607L89.1169 12.0547C89.3253 11.9349 89.5883 11.8229 89.906 11.7188C90.2289 11.6146 90.5987 11.5625 91.0154 11.5625C91.5414 11.5625 92.0128 11.6536 92.4294 11.8359C92.8461 12.013 93.2003 12.2682 93.4919 12.6016C93.7888 12.9349 94.0154 13.3359 94.1716 13.8047C94.3279 14.2734 94.406 14.7969 94.406 15.375C94.406 15.9219 94.3305 16.4245 94.1794 16.8828C94.0336 17.3411 93.8123 17.7422 93.5154 18.0859C93.2185 18.4245 92.8435 18.6875 92.3904 18.875C91.9425 19.0625 91.4138 19.1562 90.8044 19.1562C90.3461 19.1562 89.9112 19.0938 89.4998 18.9688C89.0935 18.8385 88.7289 18.6432 88.406 18.3828C88.0883 18.1172 87.8279 17.7891 87.6248 17.3984C87.4268 17.0026 87.3018 16.5391 87.2498 16.0078H88.6248C88.6873 16.4349 88.8123 16.7943 88.9998 17.0859C89.1873 17.3776 89.432 17.599 89.7341 17.75C90.0414 17.8958 90.3982 17.9688 90.8044 17.9688C91.1482 17.9688 91.4529 17.9089 91.7185 17.7891C91.9841 17.6693 92.2081 17.4974 92.3904 17.2734C92.5727 17.0495 92.7107 16.7786 92.8044 16.4609C92.9034 16.1432 92.9529 15.7865 92.9529 15.3906C92.9529 15.0312 92.9034 14.6979 92.8044 14.3906C92.7055 14.0833 92.557 13.8151 92.3591 13.5859C92.1664 13.3568 91.9294 13.1797 91.6482 13.0547C91.3669 12.9245 91.044 12.8594 90.6794 12.8594C90.1951 12.8594 89.8279 12.9245 89.5779 13.0547C89.3331 13.1849 89.0805 13.362 88.8201 13.5859ZM97.8201 13.5859L96.6638 13.2891L97.2341 7.625H103.07V8.96094H98.4607L98.1169 12.0547C98.3253 11.9349 98.5883 11.8229 98.906 11.7188C99.2289 11.6146 99.5987 11.5625 100.015 11.5625C100.541 11.5625 101.013 11.6536 101.429 11.8359C101.846 12.013 102.2 12.2682 102.492 12.6016C102.789 12.9349 103.015 13.3359 103.172 13.8047C103.328 14.2734 103.406 14.7969 103.406 15.375C103.406 15.9219 103.33 16.4245 103.179 16.8828C103.034 17.3411 102.812 17.7422 102.515 18.0859C102.219 18.4245 101.844 18.6875 101.39 18.875C100.942 19.0625 100.414 19.1562 99.8044 19.1562C99.3461 19.1562 98.9112 19.0938 98.4998 18.9688C98.0935 18.8385 97.7289 18.6432 97.406 18.3828C97.0883 18.1172 96.8279 17.7891 96.6248 17.3984C96.4268 17.0026 96.3018 16.5391 96.2498 16.0078H97.6248C97.6873 16.4349 97.8123 16.7943 97.9998 17.0859C98.1873 17.3776 98.432 17.599 98.7341 17.75C99.0414 17.8958 99.3982 17.9688 99.8044 17.9688C100.148 17.9688 100.453 17.9089 100.719 17.7891C100.984 17.6693 101.208 17.4974 101.39 17.2734C101.573 17.0495 101.711 16.7786 101.804 16.4609C101.903 16.1432 101.953 15.7865 101.953 15.3906C101.953 15.0312 101.903 14.6979 101.804 14.3906C101.705 14.0833 101.557 13.8151 101.359 13.5859C101.166 13.3568 100.929 13.1797 100.648 13.0547C100.367 12.9245 100.044 12.8594 99.6794 12.8594C99.1951 12.8594 98.8279 12.9245 98.5779 13.0547C98.3331 13.1849 98.0805 13.362 97.8201 13.5859ZM109.742 7.5625V19H108.297V9.36719L105.383 10.4297V9.125L109.515 7.5625H109.742ZM119.539 7.60938H119.664V8.83594H119.539C118.773 8.83594 118.133 8.96094 117.617 9.21094C117.101 9.45573 116.692 9.78646 116.39 10.2031C116.088 10.6146 115.87 11.0781 115.734 11.5938C115.604 12.1094 115.539 12.6328 115.539 13.1641V14.8359C115.539 15.3411 115.599 15.7891 115.719 16.1797C115.838 16.5651 116.002 16.8906 116.211 17.1562C116.419 17.4219 116.653 17.6224 116.914 17.7578C117.179 17.8932 117.455 17.9609 117.742 17.9609C118.075 17.9609 118.372 17.8984 118.633 17.7734C118.893 17.6432 119.112 17.4635 119.289 17.2344C119.471 17 119.609 16.724 119.703 16.4062C119.797 16.0885 119.844 15.7396 119.844 15.3594C119.844 15.0208 119.802 14.6953 119.719 14.3828C119.635 14.0651 119.508 13.7839 119.336 13.5391C119.164 13.2891 118.948 13.0938 118.687 12.9531C118.432 12.8073 118.127 12.7344 117.773 12.7344C117.372 12.7344 116.997 12.8333 116.648 13.0312C116.304 13.224 116.021 13.4792 115.797 13.7969C115.578 14.1094 115.453 14.4505 115.422 14.8203L114.656 14.8125C114.729 14.2292 114.864 13.7318 115.062 13.3203C115.265 12.9036 115.515 12.5651 115.812 12.3047C116.114 12.0391 116.45 11.8464 116.82 11.7266C117.195 11.6016 117.591 11.5391 118.008 11.5391C118.575 11.5391 119.065 11.6458 119.476 11.8594C119.888 12.0729 120.226 12.3594 120.492 12.7188C120.758 13.0729 120.953 13.474 121.078 13.9219C121.208 14.3646 121.273 14.8203 121.273 15.2891C121.273 15.8255 121.198 16.3281 121.047 16.7969C120.896 17.2656 120.669 17.6771 120.367 18.0312C120.07 18.3854 119.703 18.6615 119.265 18.8594C118.828 19.0573 118.32 19.1562 117.742 19.1562C117.127 19.1562 116.591 19.0312 116.133 18.7812C115.674 18.526 115.294 18.1875 114.992 17.7656C114.69 17.3438 114.463 16.875 114.312 16.3594C114.161 15.8438 114.086 15.3203 114.086 14.7891V14.1094C114.086 13.3073 114.166 12.5208 114.328 11.75C114.489 10.9792 114.768 10.2812 115.164 9.65625C115.565 9.03125 116.12 8.53385 116.828 8.16406C117.536 7.79427 118.44 7.60938 119.539 7.60938ZM130.445 17.8125V19H123V17.9609L126.726 13.8125C127.185 13.3021 127.539 12.8698 127.789 12.5156C128.044 12.1562 128.221 11.8359 128.32 11.5547C128.424 11.2682 128.476 10.9766 128.476 10.6797C128.476 10.3047 128.398 9.96615 128.242 9.66406C128.091 9.35677 127.867 9.11198 127.57 8.92969C127.273 8.7474 126.914 8.65625 126.492 8.65625C125.987 8.65625 125.565 8.75521 125.226 8.95312C124.893 9.14583 124.643 9.41667 124.476 9.76562C124.31 10.1146 124.226 10.5156 124.226 10.9688H122.781C122.781 10.3281 122.922 9.74219 123.203 9.21094C123.484 8.67969 123.901 8.25781 124.453 7.94531C125.005 7.6276 125.685 7.46875 126.492 7.46875C127.211 7.46875 127.825 7.59635 128.336 7.85156C128.846 8.10156 129.237 8.45573 129.508 8.91406C129.784 9.36719 129.922 9.89844 129.922 10.5078C129.922 10.8411 129.864 11.1797 129.75 11.5234C129.64 11.862 129.487 12.2005 129.289 12.5391C129.096 12.8776 128.87 13.2109 128.609 13.5391C128.354 13.8672 128.08 14.1901 127.789 14.5078L124.742 17.8125H130.445ZM139.344 7.625V8.4375L134.633 19H133.109L137.812 8.8125H131.656V7.625H139.344ZM143.101 12.6016H144.133C144.638 12.6016 145.054 12.5182 145.383 12.3516C145.716 12.1797 145.963 11.9479 146.125 11.6562C146.291 11.3594 146.375 11.026 146.375 10.6562C146.375 10.2188 146.302 9.85156 146.156 9.55469C146.01 9.25781 145.791 9.03385 145.5 8.88281C145.208 8.73177 144.838 8.65625 144.39 8.65625C143.984 8.65625 143.625 8.73698 143.312 8.89844C143.005 9.05469 142.763 9.27865 142.586 9.57031C142.414 9.86198 142.328 10.2057 142.328 10.6016H140.883C140.883 10.0234 141.028 9.4974 141.32 9.02344C141.612 8.54948 142.021 8.17188 142.547 7.89062C143.078 7.60938 143.692 7.46875 144.39 7.46875C145.078 7.46875 145.679 7.59115 146.195 7.83594C146.711 8.07552 147.112 8.4349 147.398 8.91406C147.685 9.38802 147.828 9.97917 147.828 10.6875C147.828 10.974 147.76 11.2812 147.625 11.6094C147.495 11.9323 147.289 12.2344 147.008 12.5156C146.732 12.7969 146.372 13.0286 145.929 13.2109C145.487 13.388 144.955 13.4766 144.336 13.4766H143.101V12.6016ZM143.101 13.7891V12.9219H144.336C145.06 12.9219 145.659 13.0078 146.133 13.1797C146.607 13.3516 146.979 13.5807 147.25 13.8672C147.526 14.1536 147.719 14.4688 147.828 14.8125C147.942 15.151 148 15.4896 148 15.8281C148 16.3594 147.909 16.8307 147.726 17.2422C147.549 17.6536 147.297 18.0026 146.969 18.2891C146.646 18.5755 146.265 18.7917 145.828 18.9375C145.39 19.0833 144.914 19.1562 144.398 19.1562C143.903 19.1562 143.437 19.0859 143 18.9453C142.567 18.8047 142.185 18.6016 141.851 18.3359C141.518 18.0651 141.258 17.7344 141.07 17.3438C140.883 16.9479 140.789 16.4974 140.789 15.9922H142.234C142.234 16.388 142.32 16.7344 142.492 17.0312C142.669 17.3281 142.919 17.5599 143.242 17.7266C143.57 17.888 143.955 17.9688 144.398 17.9688C144.841 17.9688 145.221 17.8932 145.539 17.7422C145.862 17.5859 146.109 17.3516 146.281 17.0391C146.458 16.7266 146.547 16.3333 146.547 15.8594C146.547 15.3854 146.448 14.9974 146.25 14.6953C146.052 14.388 145.771 14.1615 145.406 14.0156C145.047 13.8646 144.622 13.7891 144.133 13.7891H143.101ZM152.101 12.6016H153.133C153.638 12.6016 154.054 12.5182 154.383 12.3516C154.716 12.1797 154.963 11.9479 155.125 11.6562C155.291 11.3594 155.375 11.026 155.375 10.6562C155.375 10.2188 155.302 9.85156 155.156 9.55469C155.01 9.25781 154.791 9.03385 154.5 8.88281C154.208 8.73177 153.838 8.65625 153.39 8.65625C152.984 8.65625 152.625 8.73698 152.312 8.89844C152.005 9.05469 151.763 9.27865 151.586 9.57031C151.414 9.86198 151.328 10.2057 151.328 10.6016H149.883C149.883 10.0234 150.028 9.4974 150.32 9.02344C150.612 8.54948 151.021 8.17188 151.547 7.89062C152.078 7.60938 152.692 7.46875 153.39 7.46875C154.078 7.46875 154.679 7.59115 155.195 7.83594C155.711 8.07552 156.112 8.4349 156.398 8.91406C156.685 9.38802 156.828 9.97917 156.828 10.6875C156.828 10.974 156.76 11.2812 156.625 11.6094C156.495 11.9323 156.289 12.2344 156.008 12.5156C155.732 12.7969 155.372 13.0286 154.929 13.2109C154.487 13.388 153.955 13.4766 153.336 13.4766H152.101V12.6016ZM152.101 13.7891V12.9219H153.336C154.06 12.9219 154.659 13.0078 155.133 13.1797C155.607 13.3516 155.979 13.5807 156.25 13.8672C156.526 14.1536 156.719 14.4688 156.828 14.8125C156.942 15.151 157 15.4896 157 15.8281C157 16.3594 156.909 16.8307 156.726 17.2422C156.549 17.6536 156.297 18.0026 155.969 18.2891C155.646 18.5755 155.265 18.7917 154.828 18.9375C154.39 19.0833 153.914 19.1562 153.398 19.1562C152.903 19.1562 152.437 19.0859 152 18.9453C151.567 18.8047 151.185 18.6016 150.851 18.3359C150.518 18.0651 150.258 17.7344 150.07 17.3438C149.883 16.9479 149.789 16.4974 149.789 15.9922H151.234C151.234 16.388 151.32 16.7344 151.492 17.0312C151.669 17.3281 151.919 17.5599 152.242 17.7266C152.57 17.888 152.955 17.9688 153.398 17.9688C153.841 17.9688 154.221 17.8932 154.539 17.7422C154.862 17.5859 155.109 17.3516 155.281 17.0391C155.458 16.7266 155.547 16.3333 155.547 15.8594C155.547 15.3854 155.448 14.9974 155.25 14.6953C155.052 14.388 154.771 14.1615 154.406 14.0156C154.047 13.8646 153.622 13.7891 153.133 13.7891H152.101Z" fill="white"/>
</svg>
